%TF.GenerationSoftware,KiCad,Pcbnew,8.0.3*%
%TF.CreationDate,2024-07-15T18:29:38-05:00*%
%TF.ProjectId,amplifier,616d706c-6966-4696-9572-2e6b69636164,1.0*%
%TF.SameCoordinates,Original*%
%TF.FileFunction,Legend,Bot*%
%TF.FilePolarity,Positive*%
%FSLAX46Y46*%
G04 Gerber Fmt 4.6, Leading zero omitted, Abs format (unit mm)*
G04 Created by KiCad (PCBNEW 8.0.3) date 2024-07-15 18:29:38*
%MOMM*%
%LPD*%
G01*
G04 APERTURE LIST*
%ADD10C,0.450000*%
%ADD11C,0.375000*%
G04 APERTURE END LIST*
D10*
G36*
X147883112Y-81383021D02*
G01*
X147989958Y-81442978D01*
X148089689Y-81482648D01*
X148196942Y-81511499D01*
X148311718Y-81529531D01*
X148413109Y-81536293D01*
X148455129Y-81536894D01*
X148562305Y-81530666D01*
X148661819Y-81511981D01*
X148775435Y-81471109D01*
X148877077Y-81410773D01*
X148966746Y-81330975D01*
X149044441Y-81231713D01*
X149097976Y-81138290D01*
X149153009Y-81007250D01*
X149193851Y-80863259D01*
X149220500Y-80706316D01*
X149232958Y-80536422D01*
X149231224Y-80353576D01*
X149219619Y-80197974D01*
X149204954Y-80075833D01*
X149176523Y-79903241D01*
X149140321Y-79739007D01*
X149096350Y-79583131D01*
X149044609Y-79435612D01*
X148985097Y-79296451D01*
X148917816Y-79165647D01*
X148842765Y-79043201D01*
X148759944Y-78929113D01*
X148671543Y-78825902D01*
X148579754Y-78736451D01*
X148484575Y-78660763D01*
X148386008Y-78598836D01*
X148284052Y-78550670D01*
X148178707Y-78516267D01*
X148069973Y-78495624D01*
X147957850Y-78488743D01*
X147855463Y-78492582D01*
X147745301Y-78506762D01*
X147645143Y-78531390D01*
X147542927Y-78572332D01*
X147496720Y-78597920D01*
X147585624Y-79239057D01*
X147675047Y-79161480D01*
X147774302Y-79106067D01*
X147883387Y-79072820D01*
X147986900Y-79061910D01*
X148002302Y-79061737D01*
X148101730Y-79070908D01*
X148211608Y-79104788D01*
X148314895Y-79163632D01*
X148411590Y-79247441D01*
X148476622Y-79322588D01*
X148547679Y-79426650D01*
X148608811Y-79543747D01*
X148660016Y-79673877D01*
X148701295Y-79817043D01*
X148732648Y-79973243D01*
X148740893Y-80028206D01*
X148756704Y-80182045D01*
X148759088Y-80346156D01*
X148744175Y-80493718D01*
X148705951Y-80642095D01*
X148678367Y-80708178D01*
X148608299Y-80819095D01*
X148520219Y-80898321D01*
X148414126Y-80945857D01*
X148306519Y-80961455D01*
X148290020Y-80961702D01*
X148179755Y-80953322D01*
X148071219Y-80928183D01*
X147964413Y-80886283D01*
X147859336Y-80827624D01*
X147800069Y-80786580D01*
X147883112Y-81383021D01*
G37*
G36*
X146253524Y-81490000D02*
G01*
X146676552Y-81490000D01*
X146510956Y-80294187D01*
X146496954Y-80137059D01*
X146509379Y-79978126D01*
X146574886Y-79860732D01*
X146667271Y-79831835D01*
X146767585Y-79860332D01*
X146851333Y-79938350D01*
X146868039Y-79961528D01*
X146929483Y-80077917D01*
X146970934Y-80217525D01*
X146983321Y-80289790D01*
X147149895Y-81490000D01*
X147574389Y-81490000D01*
X147139148Y-78348060D01*
X146714654Y-78348060D01*
X146901256Y-79697745D01*
X146895882Y-79697745D01*
X146816267Y-79573737D01*
X146732392Y-79475385D01*
X146644259Y-79402691D01*
X146536053Y-79350308D01*
X146438692Y-79333203D01*
X146422051Y-79332847D01*
X146314355Y-79346345D01*
X146205538Y-79401181D01*
X146125391Y-79498200D01*
X146073914Y-79637401D01*
X146051107Y-79818783D01*
X146053504Y-79994260D01*
X146067343Y-80143584D01*
X146074249Y-80196734D01*
X146253524Y-81490000D01*
G37*
G36*
X145848569Y-81490000D02*
G01*
X145165666Y-81490000D01*
X145051169Y-81483565D01*
X144940688Y-81464262D01*
X144834221Y-81432091D01*
X144731769Y-81387051D01*
X144633331Y-81329143D01*
X144538908Y-81258366D01*
X144448500Y-81174720D01*
X144362107Y-81078206D01*
X144281499Y-80970735D01*
X144208448Y-80854586D01*
X144142952Y-80729759D01*
X144085013Y-80596254D01*
X144034631Y-80454070D01*
X143991804Y-80303208D01*
X143956534Y-80143668D01*
X143928820Y-79975450D01*
X143908697Y-79801097D01*
X143900291Y-79671074D01*
X144369866Y-79671074D01*
X144371529Y-79832310D01*
X144387020Y-79984242D01*
X144395301Y-80039380D01*
X144426465Y-80196001D01*
X144467108Y-80339433D01*
X144517232Y-80469675D01*
X144576835Y-80586728D01*
X144645917Y-80690593D01*
X144722579Y-80778743D01*
X144819658Y-80858535D01*
X144924965Y-80913502D01*
X145021776Y-80940860D01*
X145124633Y-80949979D01*
X145339567Y-80949979D01*
X145080181Y-79077857D01*
X144868178Y-79077857D01*
X144832845Y-79078805D01*
X144719127Y-79097042D01*
X144620882Y-79138490D01*
X144527551Y-79214282D01*
X144454431Y-79320390D01*
X144432423Y-79367312D01*
X144389604Y-79507927D01*
X144369866Y-79671074D01*
X143900291Y-79671074D01*
X143898152Y-79637994D01*
X143897187Y-79486139D01*
X143913699Y-79279447D01*
X143951764Y-79098064D01*
X144011381Y-78941991D01*
X144092551Y-78811227D01*
X144195273Y-78705772D01*
X144319548Y-78625626D01*
X144414371Y-78586256D01*
X144518773Y-78558135D01*
X144632755Y-78541262D01*
X144756315Y-78535638D01*
X145439218Y-78535638D01*
X145848569Y-81490000D01*
G37*
D11*
G36*
X152557798Y-84624982D02*
G01*
X151931315Y-84624982D01*
X151931315Y-85075000D01*
X152914637Y-85075000D01*
X152914637Y-84889375D01*
X152910134Y-84764277D01*
X152894953Y-84638339D01*
X152876535Y-84551099D01*
X152842372Y-84434193D01*
X152801801Y-84327566D01*
X152780914Y-84281821D01*
X152732128Y-84189217D01*
X152675668Y-84099859D01*
X152654518Y-84070551D01*
X152595654Y-83993798D01*
X152535697Y-83919085D01*
X152524092Y-83905076D01*
X152463001Y-83829819D01*
X152410153Y-83757920D01*
X152354941Y-83669859D01*
X152327721Y-83617480D01*
X152286849Y-83512380D01*
X152277529Y-83477041D01*
X152261622Y-83354903D01*
X152261043Y-83325000D01*
X152271281Y-83201998D01*
X152311241Y-83092548D01*
X152314532Y-83087473D01*
X152382218Y-83027023D01*
X152458119Y-83007582D01*
X152478297Y-83006873D01*
X152560999Y-83019817D01*
X152642087Y-83058648D01*
X152710308Y-83112537D01*
X152777344Y-83185445D01*
X152843196Y-83277372D01*
X152843196Y-82787055D01*
X152769191Y-82714633D01*
X152691710Y-82657196D01*
X152610750Y-82614742D01*
X152526313Y-82587272D01*
X152453293Y-82575826D01*
X152408321Y-82573953D01*
X152333975Y-82579725D01*
X152259090Y-82599188D01*
X152207187Y-82622801D01*
X152139328Y-82669444D01*
X152076256Y-82735228D01*
X152056245Y-82762630D01*
X152004720Y-82856377D01*
X151966235Y-82967029D01*
X151962090Y-82983060D01*
X151939800Y-83102054D01*
X151929993Y-83232502D01*
X151929483Y-83271877D01*
X151933914Y-83394237D01*
X151948714Y-83514584D01*
X151960990Y-83574127D01*
X151992236Y-83684974D01*
X152034584Y-83793622D01*
X152044155Y-83814096D01*
X152096469Y-83911528D01*
X152151687Y-83995443D01*
X152164323Y-84012543D01*
X152224860Y-84090031D01*
X152287221Y-84165414D01*
X152305373Y-84186566D01*
X152365766Y-84258837D01*
X152400628Y-84301971D01*
X152458575Y-84380315D01*
X152481594Y-84415544D01*
X152530512Y-84507571D01*
X152537281Y-84524232D01*
X152557798Y-84624982D01*
G37*
G36*
X151246472Y-82582137D02*
G01*
X151321802Y-82606689D01*
X151390871Y-82647610D01*
X151465489Y-82718321D01*
X151531091Y-82812603D01*
X151578872Y-82909176D01*
X151587641Y-82930386D01*
X151627306Y-83045346D01*
X151660012Y-83175154D01*
X151685759Y-83319809D01*
X151701347Y-83446224D01*
X151712481Y-83582141D01*
X151719161Y-83727561D01*
X151721388Y-83882484D01*
X151719327Y-84031622D01*
X151713145Y-84171139D01*
X151702841Y-84301034D01*
X151688415Y-84421306D01*
X151659049Y-84583675D01*
X151620409Y-84724394D01*
X151572495Y-84843464D01*
X151515308Y-84940885D01*
X151448848Y-85016657D01*
X151373113Y-85070780D01*
X151288105Y-85103254D01*
X151193824Y-85114078D01*
X151130059Y-85108888D01*
X151055715Y-85087803D01*
X150974365Y-85041092D01*
X150901593Y-84971025D01*
X150837399Y-84877602D01*
X150790457Y-84781908D01*
X150781801Y-84760863D01*
X150742646Y-84647105D01*
X150710360Y-84519125D01*
X150684944Y-84376923D01*
X150669556Y-84252922D01*
X150658565Y-84119819D01*
X150651971Y-83977614D01*
X150650021Y-83843405D01*
X150981699Y-83843405D01*
X150983473Y-83996176D01*
X150988796Y-84133920D01*
X151001412Y-84294205D01*
X151020337Y-84427775D01*
X151052865Y-84557171D01*
X151104908Y-84657349D01*
X151183565Y-84698255D01*
X151264221Y-84658576D01*
X151317587Y-84561404D01*
X151350941Y-84435889D01*
X151370347Y-84306326D01*
X151383284Y-84150850D01*
X151388742Y-84017238D01*
X151390561Y-83869050D01*
X151390355Y-83814842D01*
X151387264Y-83662541D01*
X151380463Y-83525729D01*
X151365626Y-83367405D01*
X151344193Y-83236616D01*
X151308129Y-83111850D01*
X151251251Y-83018921D01*
X151179535Y-82987944D01*
X151167364Y-82988780D01*
X151092982Y-83041411D01*
X151044296Y-83151685D01*
X151014350Y-83289528D01*
X150997348Y-83429877D01*
X150988654Y-83552682D01*
X150983438Y-83690525D01*
X150981699Y-83843405D01*
X150650021Y-83843405D01*
X150649773Y-83826308D01*
X150651785Y-83674656D01*
X150657821Y-83532787D01*
X150667882Y-83400703D01*
X150681967Y-83278403D01*
X150710640Y-83113297D01*
X150748368Y-82970206D01*
X150795150Y-82849128D01*
X150850987Y-82750065D01*
X150915878Y-82673016D01*
X150989825Y-82617981D01*
X151072825Y-82584960D01*
X151164881Y-82573953D01*
X151246472Y-82582137D01*
G37*
G36*
X150142725Y-84624982D02*
G01*
X149516242Y-84624982D01*
X149516242Y-85075000D01*
X150499563Y-85075000D01*
X150499563Y-84889375D01*
X150495061Y-84764277D01*
X150479880Y-84638339D01*
X150461461Y-84551099D01*
X150427299Y-84434193D01*
X150386727Y-84327566D01*
X150365840Y-84281821D01*
X150317055Y-84189217D01*
X150260595Y-84099859D01*
X150239445Y-84070551D01*
X150180580Y-83993798D01*
X150120624Y-83919085D01*
X150109019Y-83905076D01*
X150047928Y-83829819D01*
X149995080Y-83757920D01*
X149939868Y-83669859D01*
X149912648Y-83617480D01*
X149871775Y-83512380D01*
X149862456Y-83477041D01*
X149846549Y-83354903D01*
X149845969Y-83325000D01*
X149856208Y-83201998D01*
X149896168Y-83092548D01*
X149899459Y-83087473D01*
X149967144Y-83027023D01*
X150043046Y-83007582D01*
X150063224Y-83006873D01*
X150145925Y-83019817D01*
X150227014Y-83058648D01*
X150295235Y-83112537D01*
X150362271Y-83185445D01*
X150428122Y-83277372D01*
X150428122Y-82787055D01*
X150354118Y-82714633D01*
X150276636Y-82657196D01*
X150195677Y-82614742D01*
X150111240Y-82587272D01*
X150038220Y-82575826D01*
X149993248Y-82573953D01*
X149918901Y-82579725D01*
X149844017Y-82599188D01*
X149792114Y-82622801D01*
X149724254Y-82669444D01*
X149661182Y-82735228D01*
X149641172Y-82762630D01*
X149589647Y-82856377D01*
X149551162Y-82967029D01*
X149547016Y-82983060D01*
X149524727Y-83102054D01*
X149514919Y-83232502D01*
X149514410Y-83271877D01*
X149518841Y-83394237D01*
X149533640Y-83514584D01*
X149545917Y-83574127D01*
X149577163Y-83684974D01*
X149619511Y-83793622D01*
X149629082Y-83814096D01*
X149681396Y-83911528D01*
X149736614Y-83995443D01*
X149749249Y-84012543D01*
X149809787Y-84090031D01*
X149872147Y-84165414D01*
X149890300Y-84186566D01*
X149950692Y-84258837D01*
X149985554Y-84301971D01*
X150043501Y-84380315D01*
X150066521Y-84415544D01*
X150115439Y-84507571D01*
X150122208Y-84524232D01*
X150142725Y-84624982D01*
G37*
G36*
X148711774Y-82659571D02*
G01*
X148747924Y-82778425D01*
X148784130Y-82888452D01*
X148823813Y-83001378D01*
X148851840Y-83077312D01*
X148895426Y-83190893D01*
X148940867Y-83304086D01*
X148982815Y-83404378D01*
X149020477Y-83491475D01*
X149064292Y-83589725D01*
X149108931Y-83686602D01*
X149160136Y-83793946D01*
X149188606Y-83852368D01*
X149239086Y-83953846D01*
X149288580Y-84050591D01*
X149337090Y-84142602D01*
X149337090Y-84566974D01*
X148693021Y-84566974D01*
X148693021Y-85075000D01*
X148396266Y-85075000D01*
X148396266Y-84566974D01*
X148219312Y-84566974D01*
X148219312Y-84161531D01*
X148396266Y-84161531D01*
X148693021Y-84161531D01*
X149045464Y-84161531D01*
X149000401Y-84067498D01*
X148953872Y-83967358D01*
X148947925Y-83954357D01*
X148903682Y-83855172D01*
X148860083Y-83753035D01*
X148854284Y-83739208D01*
X148811888Y-83634746D01*
X148771423Y-83528942D01*
X148768773Y-83521809D01*
X148730573Y-83415522D01*
X148693021Y-83303628D01*
X148693021Y-84161531D01*
X148396266Y-84161531D01*
X148396266Y-82613032D01*
X148698517Y-82613032D01*
X148711774Y-82659571D01*
G37*
G36*
X147458740Y-84332501D02*
G01*
X148022575Y-84332501D01*
X148022575Y-83941713D01*
X147458740Y-83941713D01*
X147458740Y-84332501D01*
G37*
G36*
X146775362Y-82582137D02*
G01*
X146850693Y-82606689D01*
X146919762Y-82647610D01*
X146994380Y-82718321D01*
X147059982Y-82812603D01*
X147107763Y-82909176D01*
X147116531Y-82930386D01*
X147156196Y-83045346D01*
X147188902Y-83175154D01*
X147214650Y-83319809D01*
X147230237Y-83446224D01*
X147241371Y-83582141D01*
X147248052Y-83727561D01*
X147250279Y-83882484D01*
X147248218Y-84031622D01*
X147242035Y-84171139D01*
X147231731Y-84301034D01*
X147217306Y-84421306D01*
X147187939Y-84583675D01*
X147149299Y-84724394D01*
X147101386Y-84843464D01*
X147044199Y-84940885D01*
X146977738Y-85016657D01*
X146902004Y-85070780D01*
X146816996Y-85103254D01*
X146722714Y-85114078D01*
X146658950Y-85108888D01*
X146584605Y-85087803D01*
X146503255Y-85041092D01*
X146430483Y-84971025D01*
X146366289Y-84877602D01*
X146319347Y-84781908D01*
X146310692Y-84760863D01*
X146271536Y-84647105D01*
X146239251Y-84519125D01*
X146213834Y-84376923D01*
X146198447Y-84252922D01*
X146187456Y-84119819D01*
X146180861Y-83977614D01*
X146178911Y-83843405D01*
X146510589Y-83843405D01*
X146512363Y-83996176D01*
X146517686Y-84133920D01*
X146530303Y-84294205D01*
X146549228Y-84427775D01*
X146581755Y-84557171D01*
X146633799Y-84657349D01*
X146712456Y-84698255D01*
X146793111Y-84658576D01*
X146846478Y-84561404D01*
X146879831Y-84435889D01*
X146899237Y-84306326D01*
X146912175Y-84150850D01*
X146917632Y-84017238D01*
X146919452Y-83869050D01*
X146919246Y-83814842D01*
X146916154Y-83662541D01*
X146909354Y-83525729D01*
X146894516Y-83367405D01*
X146873084Y-83236616D01*
X146837020Y-83111850D01*
X146780142Y-83018921D01*
X146708426Y-82987944D01*
X146696254Y-82988780D01*
X146621872Y-83041411D01*
X146573186Y-83151685D01*
X146543240Y-83289528D01*
X146526238Y-83429877D01*
X146517544Y-83552682D01*
X146512328Y-83690525D01*
X146510589Y-83843405D01*
X146178911Y-83843405D01*
X146178663Y-83826308D01*
X146180675Y-83674656D01*
X146186712Y-83532787D01*
X146196772Y-83400703D01*
X146210857Y-83278403D01*
X146239530Y-83113297D01*
X146277258Y-82970206D01*
X146324040Y-82849128D01*
X146379877Y-82750065D01*
X146444769Y-82673016D01*
X146518715Y-82617981D01*
X146601716Y-82584960D01*
X146693771Y-82573953D01*
X146775362Y-82582137D01*
G37*
G36*
X144986514Y-82925662D02*
G01*
X145022887Y-83035658D01*
X145057817Y-83143077D01*
X145096747Y-83265143D01*
X145133712Y-83383704D01*
X145163834Y-83482536D01*
X145197241Y-83596017D01*
X145228859Y-83708854D01*
X145258690Y-83821049D01*
X145290592Y-83948485D01*
X145301953Y-83996057D01*
X145330736Y-84123292D01*
X145357366Y-84251596D01*
X145381844Y-84380968D01*
X145404169Y-84511409D01*
X145424273Y-84644636D01*
X145440287Y-84765404D01*
X145454828Y-84890088D01*
X145467896Y-85018687D01*
X145473046Y-85075000D01*
X145813032Y-85075000D01*
X145799493Y-84950675D01*
X145784200Y-84828278D01*
X145767155Y-84707811D01*
X145748357Y-84589271D01*
X145736828Y-84522400D01*
X145712098Y-84390318D01*
X145685537Y-84260297D01*
X145657144Y-84132337D01*
X145626919Y-84006437D01*
X145594953Y-83882369D01*
X145561339Y-83759904D01*
X145526077Y-83639042D01*
X145489166Y-83519783D01*
X145450697Y-83401974D01*
X145411130Y-83285463D01*
X145370464Y-83170249D01*
X145328698Y-83056332D01*
X146014898Y-83056332D01*
X146014898Y-82613032D01*
X144986514Y-82613032D01*
X144986514Y-82925662D01*
G37*
G36*
X143185833Y-83316451D02*
G01*
X143578576Y-85075000D01*
X143949337Y-85075000D01*
X144323394Y-83316451D01*
X143974982Y-83316451D01*
X143791434Y-84400279D01*
X143773306Y-84520142D01*
X143759697Y-84645056D01*
X143755530Y-84712909D01*
X143751500Y-84712909D01*
X143739479Y-84585675D01*
X143722443Y-84465533D01*
X143713398Y-84410659D01*
X143525819Y-83316451D01*
X143185833Y-83316451D01*
G37*
G36*
X142332937Y-82573953D02*
G01*
X142332937Y-85075000D01*
X142657536Y-85075000D01*
X142657536Y-83181507D01*
X142718637Y-83253784D01*
X142720917Y-83256001D01*
X142788677Y-83311766D01*
X142798953Y-83318893D01*
X142870543Y-83360206D01*
X142884316Y-83366521D01*
X142958340Y-83391669D01*
X142971877Y-83394609D01*
X142971877Y-82937875D01*
X142901732Y-82900871D01*
X142826513Y-82853526D01*
X142754156Y-82799620D01*
X142733007Y-82782170D01*
X142664822Y-82721169D01*
X142600858Y-82656471D01*
X142535375Y-82581033D01*
X142529675Y-82573953D01*
X142332937Y-82573953D01*
G37*
G36*
X141700226Y-85114078D02*
G01*
X141774049Y-85092860D01*
X141834316Y-85029204D01*
X141876052Y-84927347D01*
X141887805Y-84819155D01*
X141872295Y-84696487D01*
X141832850Y-84609717D01*
X141766420Y-84545874D01*
X141695097Y-84527896D01*
X141619443Y-84548656D01*
X141558810Y-84610938D01*
X141515855Y-84717391D01*
X141505687Y-84819155D01*
X141520990Y-84943597D01*
X141559909Y-85031646D01*
X141626333Y-85095966D01*
X141700226Y-85114078D01*
G37*
G36*
X140868105Y-82582137D02*
G01*
X140943435Y-82606689D01*
X141012504Y-82647610D01*
X141087122Y-82718321D01*
X141152724Y-82812603D01*
X141200505Y-82909176D01*
X141209273Y-82930386D01*
X141248939Y-83045346D01*
X141281645Y-83175154D01*
X141307392Y-83319809D01*
X141322980Y-83446224D01*
X141334114Y-83582141D01*
X141340794Y-83727561D01*
X141343021Y-83882484D01*
X141340960Y-84031622D01*
X141334778Y-84171139D01*
X141324474Y-84301034D01*
X141310048Y-84421306D01*
X141280682Y-84583675D01*
X141242042Y-84724394D01*
X141194128Y-84843464D01*
X141136941Y-84940885D01*
X141070480Y-85016657D01*
X140994746Y-85070780D01*
X140909738Y-85103254D01*
X140815457Y-85114078D01*
X140751692Y-85108888D01*
X140677348Y-85087803D01*
X140595998Y-85041092D01*
X140523226Y-84971025D01*
X140459032Y-84877602D01*
X140412090Y-84781908D01*
X140403434Y-84760863D01*
X140364279Y-84647105D01*
X140331993Y-84519125D01*
X140306577Y-84376923D01*
X140291189Y-84252922D01*
X140280198Y-84119819D01*
X140273604Y-83977614D01*
X140271654Y-83843405D01*
X140603332Y-83843405D01*
X140605106Y-83996176D01*
X140610429Y-84133920D01*
X140623045Y-84294205D01*
X140641970Y-84427775D01*
X140674498Y-84557171D01*
X140726541Y-84657349D01*
X140805198Y-84698255D01*
X140885854Y-84658576D01*
X140939220Y-84561404D01*
X140972574Y-84435889D01*
X140991980Y-84306326D01*
X141004917Y-84150850D01*
X141010375Y-84017238D01*
X141012194Y-83869050D01*
X141011988Y-83814842D01*
X141008897Y-83662541D01*
X141002096Y-83525729D01*
X140987259Y-83367405D01*
X140965826Y-83236616D01*
X140929762Y-83111850D01*
X140872884Y-83018921D01*
X140801168Y-82987944D01*
X140788997Y-82988780D01*
X140714615Y-83041411D01*
X140665928Y-83151685D01*
X140635982Y-83289528D01*
X140618981Y-83429877D01*
X140610287Y-83552682D01*
X140605070Y-83690525D01*
X140603332Y-83843405D01*
X140271654Y-83843405D01*
X140271406Y-83826308D01*
X140273418Y-83674656D01*
X140279454Y-83532787D01*
X140289515Y-83400703D01*
X140303600Y-83278403D01*
X140332273Y-83113297D01*
X140370001Y-82970206D01*
X140416783Y-82849128D01*
X140472620Y-82750065D01*
X140537511Y-82673016D01*
X140611458Y-82617981D01*
X140694458Y-82584960D01*
X140786514Y-82573953D01*
X140868105Y-82582137D01*
G37*
M02*
