%TF.GenerationSoftware,KiCad,Pcbnew,8.0.3*%
%TF.CreationDate,2024-07-15T18:29:38-05:00*%
%TF.ProjectId,amplifier,616d706c-6966-4696-9572-2e6b69636164,1.0*%
%TF.SameCoordinates,Original*%
%TF.FileFunction,Soldermask,Top*%
%TF.FilePolarity,Negative*%
%FSLAX46Y46*%
G04 Gerber Fmt 4.6, Leading zero omitted, Abs format (unit mm)*
G04 Created by KiCad (PCBNEW 8.0.3) date 2024-07-15 18:29:38*
%MOMM*%
%LPD*%
G01*
G04 APERTURE LIST*
G04 Aperture macros list*
%AMRoundRect*
0 Rectangle with rounded corners*
0 $1 Rounding radius*
0 $2 $3 $4 $5 $6 $7 $8 $9 X,Y pos of 4 corners*
0 Add a 4 corners polygon primitive as box body*
4,1,4,$2,$3,$4,$5,$6,$7,$8,$9,$2,$3,0*
0 Add four circle primitives for the rounded corners*
1,1,$1+$1,$2,$3*
1,1,$1+$1,$4,$5*
1,1,$1+$1,$6,$7*
1,1,$1+$1,$8,$9*
0 Add four rect primitives between the rounded corners*
20,1,$1+$1,$2,$3,$4,$5,0*
20,1,$1+$1,$4,$5,$6,$7,0*
20,1,$1+$1,$6,$7,$8,$9,0*
20,1,$1+$1,$8,$9,$2,$3,0*%
G04 Aperture macros list end*
%ADD10C,1.600000*%
%ADD11O,1.600000X1.600000*%
%ADD12C,3.200000*%
%ADD13R,1.300000X1.300000*%
%ADD14C,1.300000*%
%ADD15C,1.905000*%
%ADD16R,1.905000X2.000000*%
%ADD17O,1.905000X2.000000*%
%ADD18RoundRect,0.250000X-0.625000X0.350000X-0.625000X-0.350000X0.625000X-0.350000X0.625000X0.350000X0*%
%ADD19O,1.750000X1.200000*%
%ADD20R,1.600000X1.600000*%
%ADD21R,2.000000X2.000000*%
%ADD22C,2.000000*%
%ADD23RoundRect,0.250000X-0.350000X-0.625000X0.350000X-0.625000X0.350000X0.625000X-0.350000X0.625000X0*%
%ADD24O,1.200000X1.750000*%
%ADD25RoundRect,0.250000X0.750000X-0.600000X0.750000X0.600000X-0.750000X0.600000X-0.750000X-0.600000X0*%
%ADD26O,2.000000X1.700000*%
%ADD27RoundRect,0.250000X-0.600000X-0.750000X0.600000X-0.750000X0.600000X0.750000X-0.600000X0.750000X0*%
%ADD28O,1.700000X2.000000*%
G04 APERTURE END LIST*
D10*
%TO.C,R3*%
X133000000Y-124000000D03*
D11*
X133000000Y-134160000D03*
%TD*%
D10*
%TO.C,R14*%
X93420000Y-124000000D03*
D11*
X103580000Y-124000000D03*
%TD*%
D12*
%TO.C,H1*%
X88500000Y-77000000D03*
%TD*%
D13*
%TO.C,Q4*%
X102500000Y-106000000D03*
D14*
X101230000Y-107270000D03*
X99960000Y-106000000D03*
%TD*%
D10*
%TO.C,R8*%
X107840000Y-124000000D03*
D11*
X118000000Y-124000000D03*
%TD*%
D10*
%TO.C,C7*%
X101500000Y-111500000D03*
X101500000Y-114000000D03*
%TD*%
D15*
%TO.C,RV1*%
X109500000Y-116500000D03*
X107000000Y-114000000D03*
X109500000Y-111500000D03*
%TD*%
D16*
%TO.C,Q5*%
X142540000Y-91500000D03*
D17*
X140000000Y-91500000D03*
X137460000Y-91500000D03*
%TD*%
D13*
%TO.C,Q1*%
X138500000Y-120000000D03*
D14*
X137230000Y-118730000D03*
X138500000Y-117460000D03*
%TD*%
D12*
%TO.C,H4*%
X154500000Y-136000000D03*
%TD*%
D10*
%TO.C,R10*%
X120000000Y-105500000D03*
D11*
X109840000Y-105500000D03*
%TD*%
D18*
%TO.C,J5*%
X87000000Y-122000000D03*
D19*
X87000000Y-124000000D03*
%TD*%
D10*
%TO.C,R2*%
X128000000Y-123920000D03*
D11*
X128000000Y-134080000D03*
%TD*%
D20*
%TO.C,C4*%
X130500000Y-114500000D03*
D10*
X132500000Y-114500000D03*
%TD*%
%TO.C,R9*%
X122920000Y-105500000D03*
D11*
X133080000Y-105500000D03*
%TD*%
D12*
%TO.C,H2*%
X154500000Y-77000000D03*
%TD*%
D10*
%TO.C,R13*%
X116080000Y-81500000D03*
D11*
X105920000Y-81500000D03*
%TD*%
D21*
%TO.C,C6*%
X123000000Y-81367677D03*
D22*
X123000000Y-76367677D03*
%TD*%
D20*
%TO.C,C8*%
X95500000Y-111500000D03*
D10*
X95500000Y-113500000D03*
%TD*%
%TO.C,C3*%
X136500000Y-113000000D03*
X139000000Y-113000000D03*
%TD*%
D12*
%TO.C,H3*%
X88500000Y-136000000D03*
%TD*%
D10*
%TO.C,R6*%
X117000000Y-109500000D03*
D11*
X117000000Y-119660000D03*
%TD*%
D10*
%TO.C,R7*%
X125000000Y-119580000D03*
D11*
X125000000Y-109420000D03*
%TD*%
D23*
%TO.C,J2*%
X113000000Y-138000000D03*
D24*
X115000000Y-138000000D03*
X117000000Y-138000000D03*
%TD*%
D20*
%TO.C,C2*%
X145500000Y-127000000D03*
D10*
X145500000Y-129500000D03*
%TD*%
D13*
%TO.C,Q2*%
X109040000Y-99000000D03*
D14*
X107770000Y-100270000D03*
X106500000Y-99000000D03*
%TD*%
D16*
%TO.C,Q6*%
X105580000Y-91500000D03*
D17*
X103040000Y-91500000D03*
X100500000Y-91500000D03*
%TD*%
D25*
%TO.C,J6*%
X86500000Y-111000000D03*
D26*
X86500000Y-108500000D03*
%TD*%
D10*
%TO.C,R11*%
X122920000Y-87000000D03*
D11*
X133080000Y-87000000D03*
%TD*%
D10*
%TO.C,R1*%
X123000000Y-124000000D03*
D11*
X123000000Y-134160000D03*
%TD*%
D10*
%TO.C,C5*%
X106000000Y-78000000D03*
X106000000Y-75500000D03*
%TD*%
%TO.C,R5*%
X121000000Y-119580000D03*
D11*
X121000000Y-109420000D03*
%TD*%
D10*
%TO.C,R4*%
X138000000Y-124000000D03*
D11*
X138000000Y-134160000D03*
%TD*%
D10*
%TO.C,R12*%
X110000000Y-87000000D03*
D11*
X120160000Y-87000000D03*
%TD*%
D20*
%TO.C,C1*%
X116955113Y-131500000D03*
D10*
X114955113Y-131500000D03*
%TD*%
D27*
%TO.C,J4*%
X96500000Y-74500000D03*
D28*
X99000000Y-74500000D03*
%TD*%
D27*
%TO.C,J3*%
X136000000Y-74500000D03*
D28*
X138500000Y-74500000D03*
%TD*%
D13*
%TO.C,Q3*%
X142540000Y-106000000D03*
D14*
X141270000Y-107270000D03*
X140000000Y-106000000D03*
%TD*%
D23*
%TO.C,J1*%
X130500000Y-138000000D03*
D24*
X132500000Y-138000000D03*
%TD*%
M02*
