M48
; DRILL file {KiCad 8.0.3} date 2024-07-15T18:32:57-0500
; FORMAT={-:-/ absolute / inch / decimal}
; #@! TF.CreationDate,2024-07-15T18:32:57-05:00
; #@! TF.GenerationSoftware,Kicad,Pcbnew,8.0.3
; #@! TF.FileFunction,MixedPlating,1,2
FMAT,2
INCH
; #@! TA.AperFunction,Plated,PTH,ComponentDrill
T1C0.0250
; #@! TA.AperFunction,Plated,PTH,ComponentDrill
T2C0.0295
; #@! TA.AperFunction,Plated,PTH,ComponentDrill
T3C0.0315
; #@! TA.AperFunction,Plated,PTH,ComponentDrill
T4C0.0394
; #@! TA.AperFunction,Plated,PTH,ComponentDrill
T5C0.0433
; #@! TA.AperFunction,NonPlated,NPTH,ComponentDrill
T6C0.1260
%
G90
G05
T1
X4.2126Y-4.4882
X4.311Y-4.3898
X4.311Y-4.5866
T2
X3.4252Y-4.8031
X3.4252Y-4.8819
X3.9354Y-4.1732
X3.9854Y-4.2232
X4.0354Y-4.1732
X4.1929Y-3.8976
X4.2429Y-3.9476
X4.2929Y-3.8976
X4.4488Y-5.4331
X4.5276Y-5.4331
X4.6063Y-5.4331
X5.1378Y-5.4331
X5.2165Y-5.4331
X5.4028Y-4.6744
X5.4528Y-4.6244
X5.4528Y-4.7244
X5.5118Y-4.1732
X5.5618Y-4.2232
X5.6118Y-4.1732
T3
X3.678Y-4.8819
X3.7598Y-4.3898
X3.7598Y-4.4685
X3.9961Y-4.3898
X3.9961Y-4.4882
X4.078Y-4.8819
X4.1701Y-3.2087
X4.1732Y-2.9724
X4.1732Y-3.0709
X4.2457Y-4.8819
X4.3244Y-4.1535
X4.3307Y-3.4252
X4.5258Y-5.1772
X4.5701Y-3.2087
X4.6045Y-5.1772
X4.6063Y-4.311
X4.6063Y-4.711
X4.6457Y-4.8819
X4.7244Y-4.1535
X4.7307Y-3.4252
X4.7638Y-4.3079
X4.7638Y-4.7079
X4.8394Y-3.4252
X4.8394Y-4.1535
X4.8425Y-4.8819
X4.8425Y-5.2819
X4.9213Y-4.3079
X4.9213Y-4.7079
X5.0394Y-4.8787
X5.0394Y-5.2787
X5.1378Y-4.5079
X5.2165Y-4.5079
X5.2362Y-4.8819
X5.2362Y-5.2819
X5.2394Y-3.4252
X5.2394Y-4.1535
X5.374Y-4.4488
X5.4331Y-4.8819
X5.4331Y-5.2819
X5.4724Y-4.4488
X5.7283Y-5.0
X5.7283Y-5.0984
T4
X3.4055Y-4.2717
X3.4055Y-4.3701
X3.7992Y-2.9331
X3.8976Y-2.9331
X4.8425Y-3.0066
X4.8425Y-3.2035
X5.3543Y-2.9331
X5.4528Y-2.9331
T5
X3.9567Y-3.6024
X4.0567Y-3.6024
X4.1567Y-3.6024
X5.4118Y-3.6024
X5.5118Y-3.6024
X5.6118Y-3.6024
T6
X3.4843Y-3.0315
X3.4843Y-5.3543
X6.0827Y-3.0315
X6.0827Y-5.3543
M30
