%TF.GenerationSoftware,KiCad,Pcbnew,8.0.3*%
%TF.CreationDate,2024-07-15T18:29:38-05:00*%
%TF.ProjectId,amplifier,616d706c-6966-4696-9572-2e6b69636164,1.0*%
%TF.SameCoordinates,Original*%
%TF.FileFunction,Copper,L2,Bot*%
%TF.FilePolarity,Positive*%
%FSLAX46Y46*%
G04 Gerber Fmt 4.6, Leading zero omitted, Abs format (unit mm)*
G04 Created by KiCad (PCBNEW 8.0.3) date 2024-07-15 18:29:38*
%MOMM*%
%LPD*%
G01*
G04 APERTURE LIST*
G04 Aperture macros list*
%AMRoundRect*
0 Rectangle with rounded corners*
0 $1 Rounding radius*
0 $2 $3 $4 $5 $6 $7 $8 $9 X,Y pos of 4 corners*
0 Add a 4 corners polygon primitive as box body*
4,1,4,$2,$3,$4,$5,$6,$7,$8,$9,$2,$3,0*
0 Add four circle primitives for the rounded corners*
1,1,$1+$1,$2,$3*
1,1,$1+$1,$4,$5*
1,1,$1+$1,$6,$7*
1,1,$1+$1,$8,$9*
0 Add four rect primitives between the rounded corners*
20,1,$1+$1,$2,$3,$4,$5,0*
20,1,$1+$1,$4,$5,$6,$7,0*
20,1,$1+$1,$6,$7,$8,$9,0*
20,1,$1+$1,$8,$9,$2,$3,0*%
G04 Aperture macros list end*
%TA.AperFunction,ComponentPad*%
%ADD10C,1.600000*%
%TD*%
%TA.AperFunction,ComponentPad*%
%ADD11O,1.600000X1.600000*%
%TD*%
%TA.AperFunction,ComponentPad*%
%ADD12R,1.300000X1.300000*%
%TD*%
%TA.AperFunction,ComponentPad*%
%ADD13C,1.300000*%
%TD*%
%TA.AperFunction,ComponentPad*%
%ADD14C,1.905000*%
%TD*%
%TA.AperFunction,ComponentPad*%
%ADD15R,1.905000X2.000000*%
%TD*%
%TA.AperFunction,ComponentPad*%
%ADD16O,1.905000X2.000000*%
%TD*%
%TA.AperFunction,ComponentPad*%
%ADD17RoundRect,0.250000X-0.625000X0.350000X-0.625000X-0.350000X0.625000X-0.350000X0.625000X0.350000X0*%
%TD*%
%TA.AperFunction,ComponentPad*%
%ADD18O,1.750000X1.200000*%
%TD*%
%TA.AperFunction,ComponentPad*%
%ADD19R,1.600000X1.600000*%
%TD*%
%TA.AperFunction,ComponentPad*%
%ADD20R,2.000000X2.000000*%
%TD*%
%TA.AperFunction,ComponentPad*%
%ADD21C,2.000000*%
%TD*%
%TA.AperFunction,ComponentPad*%
%ADD22RoundRect,0.250000X-0.350000X-0.625000X0.350000X-0.625000X0.350000X0.625000X-0.350000X0.625000X0*%
%TD*%
%TA.AperFunction,ComponentPad*%
%ADD23O,1.200000X1.750000*%
%TD*%
%TA.AperFunction,ComponentPad*%
%ADD24RoundRect,0.250000X0.750000X-0.600000X0.750000X0.600000X-0.750000X0.600000X-0.750000X-0.600000X0*%
%TD*%
%TA.AperFunction,ComponentPad*%
%ADD25O,2.000000X1.700000*%
%TD*%
%TA.AperFunction,ComponentPad*%
%ADD26RoundRect,0.250000X-0.600000X-0.750000X0.600000X-0.750000X0.600000X0.750000X-0.600000X0.750000X0*%
%TD*%
%TA.AperFunction,ComponentPad*%
%ADD27O,1.700000X2.000000*%
%TD*%
%TA.AperFunction,Conductor*%
%ADD28C,0.800000*%
%TD*%
G04 APERTURE END LIST*
D10*
%TO.P,R3,1*%
%TO.N,Net-(C4-Pad2)*%
X133000000Y-124000000D03*
D11*
%TO.P,R3,2*%
%TO.N,Net-(Q1-B)*%
X133000000Y-134160000D03*
%TD*%
D10*
%TO.P,R14,1*%
%TO.N,Net-(J5-Pin_2)*%
X93420000Y-124000000D03*
D11*
%TO.P,R14,2*%
%TO.N,+12V*%
X103580000Y-124000000D03*
%TD*%
D12*
%TO.P,Q4,1,E*%
%TO.N,Net-(Q4-E)*%
X102500000Y-106000000D03*
D13*
%TO.P,Q4,2,B*%
%TO.N,Net-(Q2-C)*%
X101230000Y-107270000D03*
%TO.P,Q4,3,C*%
%TO.N,+12V*%
X99960000Y-106000000D03*
%TD*%
D10*
%TO.P,R8,1*%
%TO.N,+12V*%
X107840000Y-124000000D03*
D11*
%TO.P,R8,2*%
%TO.N,Net-(C4-Pad1)*%
X118000000Y-124000000D03*
%TD*%
D10*
%TO.P,C7,1*%
%TO.N,+12V*%
X101500000Y-111500000D03*
%TO.P,C7,2*%
%TO.N,GND*%
X101500000Y-114000000D03*
%TD*%
D14*
%TO.P,RV1,1,1*%
%TO.N,Net-(R6-Pad2)*%
X109500000Y-116500000D03*
%TO.P,RV1,2,2*%
%TO.N,Net-(Q2-B)*%
X107000000Y-114000000D03*
%TO.P,RV1,3,3*%
%TO.N,Net-(R5-Pad1)*%
X109500000Y-111500000D03*
%TD*%
D15*
%TO.P,Q5,1,B*%
%TO.N,Net-(Q3-E)*%
X142540000Y-91500000D03*
D16*
%TO.P,Q5,2,C*%
%TO.N,GND*%
X140000000Y-91500000D03*
%TO.P,Q5,3,E*%
%TO.N,Net-(Q5-E)*%
X137460000Y-91500000D03*
%TD*%
D12*
%TO.P,Q1,1,E*%
%TO.N,Net-(Q1-E)*%
X138500000Y-120000000D03*
D13*
%TO.P,Q1,2,B*%
%TO.N,Net-(Q1-B)*%
X137230000Y-118730000D03*
%TO.P,Q1,3,C*%
%TO.N,Net-(Q1-C)*%
X138500000Y-117460000D03*
%TD*%
D10*
%TO.P,R10,1*%
%TO.N,Net-(C4-Pad2)*%
X120000000Y-105500000D03*
D11*
%TO.P,R10,2*%
%TO.N,Net-(Q4-E)*%
X109840000Y-105500000D03*
%TD*%
D17*
%TO.P,J5,1,Pin_1*%
%TO.N,GND*%
X87000000Y-122000000D03*
D18*
%TO.P,J5,2,Pin_2*%
%TO.N,Net-(J5-Pin_2)*%
X87000000Y-124000000D03*
%TD*%
D10*
%TO.P,R2,1*%
%TO.N,Net-(Q1-B)*%
X128000000Y-123920000D03*
D11*
%TO.P,R2,2*%
%TO.N,GND*%
X128000000Y-134080000D03*
%TD*%
D19*
%TO.P,C4,1*%
%TO.N,Net-(C4-Pad1)*%
X130500000Y-114500000D03*
D10*
%TO.P,C4,2*%
%TO.N,Net-(C4-Pad2)*%
X132500000Y-114500000D03*
%TD*%
%TO.P,R9,1*%
%TO.N,Net-(C4-Pad2)*%
X122920000Y-105500000D03*
D11*
%TO.P,R9,2*%
%TO.N,Net-(Q3-E)*%
X133080000Y-105500000D03*
%TD*%
D10*
%TO.P,R13,1*%
%TO.N,Net-(C4-Pad2)*%
X116080000Y-81500000D03*
D11*
%TO.P,R13,2*%
%TO.N,Net-(C5-Pad1)*%
X105920000Y-81500000D03*
%TD*%
D20*
%TO.P,C6,1*%
%TO.N,Net-(C4-Pad2)*%
X123000000Y-81367677D03*
D21*
%TO.P,C6,2*%
%TO.N,Net-(J3-Pin_1)*%
X123000000Y-76367677D03*
%TD*%
D19*
%TO.P,C8,1*%
%TO.N,+12V*%
X95500000Y-111500000D03*
D10*
%TO.P,C8,2*%
%TO.N,GND*%
X95500000Y-113500000D03*
%TD*%
%TO.P,C3,1*%
%TO.N,Net-(Q1-B)*%
X136500000Y-113000000D03*
%TO.P,C3,2*%
%TO.N,Net-(Q1-C)*%
X139000000Y-113000000D03*
%TD*%
%TO.P,R6,1*%
%TO.N,Net-(Q2-C)*%
X117000000Y-109500000D03*
D11*
%TO.P,R6,2*%
%TO.N,Net-(R6-Pad2)*%
X117000000Y-119660000D03*
%TD*%
D10*
%TO.P,R7,1*%
%TO.N,Net-(C4-Pad1)*%
X125000000Y-119580000D03*
D11*
%TO.P,R7,2*%
%TO.N,Net-(Q2-C)*%
X125000000Y-109420000D03*
%TD*%
D22*
%TO.P,J2,1,Pin_1*%
%TO.N,GND*%
X113000000Y-138000000D03*
D23*
%TO.P,J2,2,Pin_2*%
%TO.N,Net-(J2-Pin_2)*%
X115000000Y-138000000D03*
%TO.P,J2,3,Pin_3*%
%TO.N,Net-(J1-Pin_1)*%
X117000000Y-138000000D03*
%TD*%
D19*
%TO.P,C2,1*%
%TO.N,Net-(Q1-E)*%
X145500000Y-127000000D03*
D10*
%TO.P,C2,2*%
%TO.N,GND*%
X145500000Y-129500000D03*
%TD*%
D12*
%TO.P,Q2,1,E*%
%TO.N,Net-(Q1-C)*%
X109040000Y-99000000D03*
D13*
%TO.P,Q2,2,B*%
%TO.N,Net-(Q2-B)*%
X107770000Y-100270000D03*
%TO.P,Q2,3,C*%
%TO.N,Net-(Q2-C)*%
X106500000Y-99000000D03*
%TD*%
D15*
%TO.P,Q6,1,B*%
%TO.N,Net-(Q4-E)*%
X105580000Y-91500000D03*
D16*
%TO.P,Q6,2,C*%
%TO.N,+12V*%
X103040000Y-91500000D03*
%TO.P,Q6,3,E*%
%TO.N,Net-(Q6-E)*%
X100500000Y-91500000D03*
%TD*%
D24*
%TO.P,J6,1,Pin_1*%
%TO.N,+12V*%
X86500000Y-111000000D03*
D25*
%TO.P,J6,2,Pin_2*%
%TO.N,Net-(J4-Pin_1)*%
X86500000Y-108500000D03*
%TD*%
D10*
%TO.P,R11,1*%
%TO.N,Net-(C4-Pad2)*%
X122920000Y-87000000D03*
D11*
%TO.P,R11,2*%
%TO.N,Net-(Q5-E)*%
X133080000Y-87000000D03*
%TD*%
D10*
%TO.P,R1,1*%
%TO.N,Net-(Q1-B)*%
X123000000Y-124000000D03*
D11*
%TO.P,R1,2*%
%TO.N,Net-(C1-Pad1)*%
X123000000Y-134160000D03*
%TD*%
D10*
%TO.P,C5,1*%
%TO.N,Net-(C5-Pad1)*%
X106000000Y-78000000D03*
%TO.P,C5,2*%
%TO.N,GND*%
X106000000Y-75500000D03*
%TD*%
%TO.P,R5,1*%
%TO.N,Net-(R5-Pad1)*%
X121000000Y-119580000D03*
D11*
%TO.P,R5,2*%
%TO.N,Net-(Q1-C)*%
X121000000Y-109420000D03*
%TD*%
D10*
%TO.P,R4,1*%
%TO.N,Net-(Q1-E)*%
X138000000Y-124000000D03*
D11*
%TO.P,R4,2*%
%TO.N,GND*%
X138000000Y-134160000D03*
%TD*%
D10*
%TO.P,R12,1*%
%TO.N,Net-(Q6-E)*%
X110000000Y-87000000D03*
D11*
%TO.P,R12,2*%
%TO.N,Net-(C4-Pad2)*%
X120160000Y-87000000D03*
%TD*%
D19*
%TO.P,C1,1*%
%TO.N,Net-(C1-Pad1)*%
X116955113Y-131500000D03*
D10*
%TO.P,C1,2*%
%TO.N,Net-(J2-Pin_2)*%
X114955113Y-131500000D03*
%TD*%
D26*
%TO.P,J4,1,Pin_1*%
%TO.N,Net-(J4-Pin_1)*%
X96500000Y-74500000D03*
D27*
%TO.P,J4,2,Pin_2*%
%TO.N,GND*%
X99000000Y-74500000D03*
%TD*%
D26*
%TO.P,J3,1,Pin_1*%
%TO.N,Net-(J3-Pin_1)*%
X136000000Y-74500000D03*
D27*
%TO.P,J3,2,Pin_2*%
%TO.N,GND*%
X138500000Y-74500000D03*
%TD*%
D12*
%TO.P,Q3,1,E*%
%TO.N,Net-(Q3-E)*%
X142540000Y-106000000D03*
D13*
%TO.P,Q3,2,B*%
%TO.N,Net-(Q1-C)*%
X141270000Y-107270000D03*
%TO.P,Q3,3,C*%
%TO.N,GND*%
X140000000Y-106000000D03*
%TD*%
D22*
%TO.P,J1,1,Pin_1*%
%TO.N,Net-(J1-Pin_1)*%
X130500000Y-138000000D03*
D23*
%TO.P,J1,2,Pin_2*%
%TO.N,GND*%
X132500000Y-138000000D03*
%TD*%
D28*
%TO.N,Net-(C4-Pad2)*%
X128000000Y-108000000D02*
X125500000Y-105500000D01*
X129000000Y-112500000D02*
X128000000Y-111500000D01*
X133000000Y-115000000D02*
X132500000Y-114500000D01*
X132500000Y-114500000D02*
X132500000Y-113000000D01*
X132000000Y-112500000D02*
X129000000Y-112500000D01*
X132500000Y-113000000D02*
X132000000Y-112500000D01*
X128000000Y-111500000D02*
X128000000Y-108000000D01*
X133000000Y-124000000D02*
X133000000Y-115000000D01*
X125500000Y-105500000D02*
X122920000Y-105500000D01*
%TO.N,Net-(Q2-C)*%
X117000000Y-109500000D02*
X111500000Y-109500000D01*
X117000000Y-111000000D02*
X117000000Y-109420000D01*
X124000000Y-112000000D02*
X118000000Y-112000000D01*
X111500000Y-109500000D02*
X110000000Y-108000000D01*
X110000000Y-108000000D02*
X101960000Y-108000000D01*
X101960000Y-108000000D02*
X101230000Y-107270000D01*
X125000000Y-111000000D02*
X124000000Y-112000000D01*
X118000000Y-112000000D02*
X117000000Y-111000000D01*
X125000000Y-109500000D02*
X125000000Y-111000000D01*
%TO.N,Net-(Q4-E)*%
X109840000Y-105500000D02*
X103000000Y-105500000D01*
X103000000Y-105500000D02*
X102500000Y-106000000D01*
%TD*%
%TA.AperFunction,Conductor*%
%TO.N,GND*%
G36*
X159443039Y-71519685D02*
G01*
X159488794Y-71572489D01*
X159500000Y-71624000D01*
X159500000Y-109448638D01*
X159480315Y-109515677D01*
X159463681Y-109536319D01*
X158536319Y-110463681D01*
X158474996Y-110497166D01*
X158448638Y-110500000D01*
X131551362Y-110500000D01*
X131484323Y-110480315D01*
X131463681Y-110463681D01*
X130536319Y-109536319D01*
X130502834Y-109474996D01*
X130500000Y-109448638D01*
X130500000Y-105499998D01*
X131774532Y-105499998D01*
X131774532Y-105500001D01*
X131794364Y-105726686D01*
X131794366Y-105726697D01*
X131853258Y-105946488D01*
X131853261Y-105946497D01*
X131949431Y-106152732D01*
X131949432Y-106152734D01*
X132079954Y-106339141D01*
X132240858Y-106500045D01*
X132240861Y-106500047D01*
X132427266Y-106630568D01*
X132633504Y-106726739D01*
X132853308Y-106785635D01*
X133015230Y-106799801D01*
X133079998Y-106805468D01*
X133080000Y-106805468D01*
X133080002Y-106805468D01*
X133136673Y-106800509D01*
X133306692Y-106785635D01*
X133526496Y-106726739D01*
X133732734Y-106630568D01*
X133919139Y-106500047D01*
X134080047Y-106339139D01*
X134210568Y-106152734D01*
X134281790Y-105999999D01*
X138845073Y-105999999D01*
X138845073Y-106000000D01*
X138864737Y-106212216D01*
X138864738Y-106212219D01*
X138923058Y-106417196D01*
X138923064Y-106417211D01*
X139018061Y-106607991D01*
X139018064Y-106607996D01*
X139026836Y-106619610D01*
X139625000Y-106021446D01*
X139625000Y-106049370D01*
X139650556Y-106144745D01*
X139699925Y-106230255D01*
X139769745Y-106300075D01*
X139855255Y-106349444D01*
X139950630Y-106375000D01*
X139978553Y-106375000D01*
X139382991Y-106970559D01*
X139485204Y-107033847D01*
X139485208Y-107033849D01*
X139683936Y-107110836D01*
X139683941Y-107110837D01*
X139893439Y-107150000D01*
X139990571Y-107150000D01*
X140057610Y-107169685D01*
X140103365Y-107222489D01*
X140112490Y-107264435D01*
X140114042Y-107264292D01*
X140134244Y-107482310D01*
X140192596Y-107687392D01*
X140192596Y-107687394D01*
X140287632Y-107878253D01*
X140287634Y-107878255D01*
X140416128Y-108048407D01*
X140573698Y-108192052D01*
X140754981Y-108304298D01*
X140953802Y-108381321D01*
X141163390Y-108420500D01*
X141163392Y-108420500D01*
X141376608Y-108420500D01*
X141376610Y-108420500D01*
X141586198Y-108381321D01*
X141785019Y-108304298D01*
X141966302Y-108192052D01*
X142123872Y-108048407D01*
X142252366Y-107878255D01*
X142347405Y-107687389D01*
X142405756Y-107482310D01*
X142425429Y-107270000D01*
X142425958Y-107264292D01*
X142428360Y-107264514D01*
X142445114Y-107207460D01*
X142497918Y-107161705D01*
X142549429Y-107150499D01*
X143237871Y-107150499D01*
X143237872Y-107150499D01*
X143297483Y-107144091D01*
X143432331Y-107093796D01*
X143547546Y-107007546D01*
X143633796Y-106892331D01*
X143684091Y-106757483D01*
X143690500Y-106697873D01*
X143690499Y-105302128D01*
X143684091Y-105242517D01*
X143633796Y-105107669D01*
X143633795Y-105107668D01*
X143633793Y-105107664D01*
X143547547Y-104992455D01*
X143547544Y-104992452D01*
X143432335Y-104906206D01*
X143432328Y-104906202D01*
X143297482Y-104855908D01*
X143297483Y-104855908D01*
X143237883Y-104849501D01*
X143237881Y-104849500D01*
X143237873Y-104849500D01*
X143237864Y-104849500D01*
X141842129Y-104849500D01*
X141842123Y-104849501D01*
X141782516Y-104855908D01*
X141647671Y-104906202D01*
X141647664Y-104906206D01*
X141532455Y-104992452D01*
X141532452Y-104992455D01*
X141446206Y-105107664D01*
X141446202Y-105107671D01*
X141395908Y-105242517D01*
X141389501Y-105302116D01*
X141389501Y-105302123D01*
X141389500Y-105302135D01*
X141389500Y-105849368D01*
X141369815Y-105916407D01*
X141317011Y-105962162D01*
X141247853Y-105972106D01*
X141184297Y-105943081D01*
X141146523Y-105884303D01*
X141142029Y-105860809D01*
X141135262Y-105787783D01*
X141135261Y-105787780D01*
X141076941Y-105582803D01*
X141076933Y-105582783D01*
X140981942Y-105392014D01*
X140981937Y-105392006D01*
X140973163Y-105380389D01*
X140375000Y-105978552D01*
X140375000Y-105950630D01*
X140349444Y-105855255D01*
X140300075Y-105769745D01*
X140230255Y-105699925D01*
X140144745Y-105650556D01*
X140049370Y-105625000D01*
X140021448Y-105625000D01*
X140617007Y-105029439D01*
X140514793Y-104966151D01*
X140514789Y-104966149D01*
X140316063Y-104889163D01*
X140316058Y-104889162D01*
X140106561Y-104850000D01*
X139893439Y-104850000D01*
X139683941Y-104889162D01*
X139683936Y-104889163D01*
X139485210Y-104966149D01*
X139485201Y-104966154D01*
X139382992Y-105029438D01*
X139382991Y-105029439D01*
X139978553Y-105625000D01*
X139950630Y-105625000D01*
X139855255Y-105650556D01*
X139769745Y-105699925D01*
X139699925Y-105769745D01*
X139650556Y-105855255D01*
X139625000Y-105950630D01*
X139625000Y-105978552D01*
X139026836Y-105380388D01*
X139018059Y-105392010D01*
X138923066Y-105582783D01*
X138923058Y-105582803D01*
X138864738Y-105787780D01*
X138864737Y-105787783D01*
X138845073Y-105999999D01*
X134281790Y-105999999D01*
X134306739Y-105946496D01*
X134365635Y-105726692D01*
X134385468Y-105500000D01*
X134365635Y-105273308D01*
X134306739Y-105053504D01*
X134210568Y-104847266D01*
X134080047Y-104660861D01*
X134080045Y-104660858D01*
X133919141Y-104499954D01*
X133732734Y-104369432D01*
X133732732Y-104369431D01*
X133526497Y-104273261D01*
X133526488Y-104273258D01*
X133306697Y-104214366D01*
X133306693Y-104214365D01*
X133306692Y-104214365D01*
X133306691Y-104214364D01*
X133306686Y-104214364D01*
X133080002Y-104194532D01*
X133079998Y-104194532D01*
X132853313Y-104214364D01*
X132853302Y-104214366D01*
X132633511Y-104273258D01*
X132633502Y-104273261D01*
X132427267Y-104369431D01*
X132427265Y-104369432D01*
X132240858Y-104499954D01*
X132079954Y-104660858D01*
X131949432Y-104847265D01*
X131949431Y-104847267D01*
X131853261Y-105053502D01*
X131853258Y-105053511D01*
X131794366Y-105273302D01*
X131794364Y-105273313D01*
X131774532Y-105499998D01*
X130500000Y-105499998D01*
X130500000Y-104500000D01*
X129500000Y-103500000D01*
X98250000Y-103500000D01*
X99000000Y-102500000D01*
X83500000Y-102500000D01*
X83500000Y-98999999D01*
X105344571Y-98999999D01*
X105344571Y-99000000D01*
X105364244Y-99212310D01*
X105422596Y-99417392D01*
X105422596Y-99417394D01*
X105517632Y-99608253D01*
X105630326Y-99757482D01*
X105646128Y-99778407D01*
X105803698Y-99922052D01*
X105984981Y-100034298D01*
X106183802Y-100111321D01*
X106393390Y-100150500D01*
X106393392Y-100150500D01*
X106490571Y-100150500D01*
X106557610Y-100170185D01*
X106603365Y-100222989D01*
X106612383Y-100264445D01*
X106614042Y-100264292D01*
X106634244Y-100482310D01*
X106692596Y-100687392D01*
X106692596Y-100687394D01*
X106787632Y-100878253D01*
X106787634Y-100878255D01*
X106916128Y-101048407D01*
X107073698Y-101192052D01*
X107254981Y-101304298D01*
X107453802Y-101381321D01*
X107663390Y-101420500D01*
X107663392Y-101420500D01*
X107876608Y-101420500D01*
X107876610Y-101420500D01*
X108086198Y-101381321D01*
X108285019Y-101304298D01*
X108466302Y-101192052D01*
X108623872Y-101048407D01*
X108752366Y-100878255D01*
X108847405Y-100687389D01*
X108905756Y-100482310D01*
X108925429Y-100270000D01*
X108925958Y-100264292D01*
X108928360Y-100264514D01*
X108945114Y-100207460D01*
X108997918Y-100161705D01*
X109049429Y-100150499D01*
X109737871Y-100150499D01*
X109737872Y-100150499D01*
X109797483Y-100144091D01*
X109932331Y-100093796D01*
X110047546Y-100007546D01*
X110133796Y-99892331D01*
X110184091Y-99757483D01*
X110190500Y-99697873D01*
X110190499Y-98302128D01*
X110184091Y-98242517D01*
X110133796Y-98107669D01*
X110133795Y-98107668D01*
X110133793Y-98107664D01*
X110047547Y-97992455D01*
X110047544Y-97992452D01*
X109932335Y-97906206D01*
X109932328Y-97906202D01*
X109797482Y-97855908D01*
X109797483Y-97855908D01*
X109737883Y-97849501D01*
X109737881Y-97849500D01*
X109737873Y-97849500D01*
X109737864Y-97849500D01*
X108342129Y-97849500D01*
X108342123Y-97849501D01*
X108282516Y-97855908D01*
X108147671Y-97906202D01*
X108147664Y-97906206D01*
X108032455Y-97992452D01*
X108032452Y-97992455D01*
X107946206Y-98107664D01*
X107946202Y-98107671D01*
X107895908Y-98242517D01*
X107889501Y-98302116D01*
X107889501Y-98302123D01*
X107889500Y-98302135D01*
X107889500Y-98843946D01*
X107869815Y-98910985D01*
X107817011Y-98956740D01*
X107747853Y-98966684D01*
X107684297Y-98937659D01*
X107646523Y-98878881D01*
X107642029Y-98855387D01*
X107640969Y-98843946D01*
X107635756Y-98787690D01*
X107577405Y-98582611D01*
X107577403Y-98582606D01*
X107577403Y-98582605D01*
X107482367Y-98391746D01*
X107353872Y-98221593D01*
X107228906Y-98107671D01*
X107196302Y-98077948D01*
X107015019Y-97965702D01*
X107015017Y-97965701D01*
X106915608Y-97927190D01*
X106816198Y-97888679D01*
X106606610Y-97849500D01*
X106393390Y-97849500D01*
X106183802Y-97888679D01*
X106183799Y-97888679D01*
X106183799Y-97888680D01*
X105984982Y-97965701D01*
X105984980Y-97965702D01*
X105803699Y-98077947D01*
X105646127Y-98221593D01*
X105517632Y-98391746D01*
X105422596Y-98582605D01*
X105422596Y-98582607D01*
X105364244Y-98787689D01*
X105344571Y-98999999D01*
X83500000Y-98999999D01*
X83500000Y-91338146D01*
X99047000Y-91338146D01*
X99047000Y-91661853D01*
X99082778Y-91887746D01*
X99082778Y-91887749D01*
X99153450Y-92105255D01*
X99153452Y-92105258D01*
X99257283Y-92309038D01*
X99391714Y-92494066D01*
X99553434Y-92655786D01*
X99738462Y-92790217D01*
X99870599Y-92857544D01*
X99942244Y-92894049D01*
X100159751Y-92964721D01*
X100159752Y-92964721D01*
X100159755Y-92964722D01*
X100385646Y-93000500D01*
X100385647Y-93000500D01*
X100614353Y-93000500D01*
X100614354Y-93000500D01*
X100840245Y-92964722D01*
X100840248Y-92964721D01*
X100840249Y-92964721D01*
X101057755Y-92894049D01*
X101057755Y-92894048D01*
X101057758Y-92894048D01*
X101261538Y-92790217D01*
X101446566Y-92655786D01*
X101608286Y-92494066D01*
X101669683Y-92409559D01*
X101725012Y-92366896D01*
X101794625Y-92360917D01*
X101856420Y-92393523D01*
X101870314Y-92409556D01*
X101931714Y-92494066D01*
X102093434Y-92655786D01*
X102278462Y-92790217D01*
X102410599Y-92857544D01*
X102482244Y-92894049D01*
X102699751Y-92964721D01*
X102699752Y-92964721D01*
X102699755Y-92964722D01*
X102925646Y-93000500D01*
X102925647Y-93000500D01*
X103154353Y-93000500D01*
X103154354Y-93000500D01*
X103380245Y-92964722D01*
X103380248Y-92964721D01*
X103380249Y-92964721D01*
X103597755Y-92894049D01*
X103597755Y-92894048D01*
X103597758Y-92894048D01*
X103801538Y-92790217D01*
X103984245Y-92657472D01*
X104050046Y-92633994D01*
X104118100Y-92649819D01*
X104166795Y-92699924D01*
X104173308Y-92714459D01*
X104183702Y-92742328D01*
X104183706Y-92742335D01*
X104269952Y-92857544D01*
X104269955Y-92857547D01*
X104385164Y-92943793D01*
X104385171Y-92943797D01*
X104520017Y-92994091D01*
X104520016Y-92994091D01*
X104526944Y-92994835D01*
X104579627Y-93000500D01*
X106580372Y-93000499D01*
X106639983Y-92994091D01*
X106774831Y-92943796D01*
X106890046Y-92857546D01*
X106976296Y-92742331D01*
X107026591Y-92607483D01*
X107033000Y-92547873D01*
X107032999Y-91338146D01*
X136007000Y-91338146D01*
X136007000Y-91661853D01*
X136042778Y-91887746D01*
X136042778Y-91887749D01*
X136113450Y-92105255D01*
X136113452Y-92105258D01*
X136217283Y-92309038D01*
X136351714Y-92494066D01*
X136513434Y-92655786D01*
X136698462Y-92790217D01*
X136830599Y-92857544D01*
X136902244Y-92894049D01*
X137119751Y-92964721D01*
X137119752Y-92964721D01*
X137119755Y-92964722D01*
X137345646Y-93000500D01*
X137345647Y-93000500D01*
X137574353Y-93000500D01*
X137574354Y-93000500D01*
X137800245Y-92964722D01*
X137800248Y-92964721D01*
X137800249Y-92964721D01*
X138017755Y-92894049D01*
X138017755Y-92894048D01*
X138017758Y-92894048D01*
X138221538Y-92790217D01*
X138406566Y-92655786D01*
X138568286Y-92494066D01*
X138629992Y-92409134D01*
X138685319Y-92366470D01*
X138754932Y-92360491D01*
X138816727Y-92393096D01*
X138830626Y-92409135D01*
X138892097Y-92493741D01*
X138892097Y-92493742D01*
X139053757Y-92655402D01*
X139238723Y-92789788D01*
X139442429Y-92893582D01*
X139659871Y-92964234D01*
X139750000Y-92978509D01*
X139750000Y-91990747D01*
X139787708Y-92012518D01*
X139927591Y-92050000D01*
X140072409Y-92050000D01*
X140212292Y-92012518D01*
X140250000Y-91990747D01*
X140250000Y-92978508D01*
X140340128Y-92964234D01*
X140557570Y-92893582D01*
X140761276Y-92789788D01*
X140944059Y-92656988D01*
X141009865Y-92633508D01*
X141077919Y-92649333D01*
X141126614Y-92699439D01*
X141133127Y-92713974D01*
X141143701Y-92742326D01*
X141143706Y-92742335D01*
X141229952Y-92857544D01*
X141229955Y-92857547D01*
X141345164Y-92943793D01*
X141345171Y-92943797D01*
X141480017Y-92994091D01*
X141480016Y-92994091D01*
X141486944Y-92994835D01*
X141539627Y-93000500D01*
X143540372Y-93000499D01*
X143599983Y-92994091D01*
X143734831Y-92943796D01*
X143850046Y-92857546D01*
X143936296Y-92742331D01*
X143986591Y-92607483D01*
X143993000Y-92547873D01*
X143992999Y-90452128D01*
X143986591Y-90392517D01*
X143976841Y-90366377D01*
X143936297Y-90257671D01*
X143936293Y-90257664D01*
X143850047Y-90142455D01*
X143850044Y-90142452D01*
X143734835Y-90056206D01*
X143734828Y-90056202D01*
X143599982Y-90005908D01*
X143599983Y-90005908D01*
X143540383Y-89999501D01*
X143540381Y-89999500D01*
X143540373Y-89999500D01*
X143540364Y-89999500D01*
X141539629Y-89999500D01*
X141539623Y-89999501D01*
X141480016Y-90005908D01*
X141345171Y-90056202D01*
X141345164Y-90056206D01*
X141229955Y-90142452D01*
X141229952Y-90142455D01*
X141143706Y-90257664D01*
X141143702Y-90257671D01*
X141133127Y-90286026D01*
X141091256Y-90341960D01*
X141025791Y-90366377D01*
X140957518Y-90351525D01*
X140944060Y-90343011D01*
X140761279Y-90210213D01*
X140557568Y-90106417D01*
X140340124Y-90035765D01*
X140250000Y-90021490D01*
X140250000Y-91009252D01*
X140212292Y-90987482D01*
X140072409Y-90950000D01*
X139927591Y-90950000D01*
X139787708Y-90987482D01*
X139750000Y-91009252D01*
X139750000Y-90021490D01*
X139749999Y-90021490D01*
X139659875Y-90035765D01*
X139442431Y-90106417D01*
X139238723Y-90210211D01*
X139053757Y-90344597D01*
X138892097Y-90506257D01*
X138830627Y-90590864D01*
X138775297Y-90633529D01*
X138705684Y-90639508D01*
X138643889Y-90606902D01*
X138629991Y-90590864D01*
X138568286Y-90505934D01*
X138406566Y-90344214D01*
X138221538Y-90209783D01*
X138017755Y-90105950D01*
X137800248Y-90035278D01*
X137614812Y-90005908D01*
X137574354Y-89999500D01*
X137345646Y-89999500D01*
X137305188Y-90005908D01*
X137119753Y-90035278D01*
X137119750Y-90035278D01*
X136902244Y-90105950D01*
X136698461Y-90209783D01*
X136632551Y-90257670D01*
X136513434Y-90344214D01*
X136513432Y-90344216D01*
X136513431Y-90344216D01*
X136351716Y-90505931D01*
X136351716Y-90505932D01*
X136351714Y-90505934D01*
X136293980Y-90585396D01*
X136217283Y-90690961D01*
X136113450Y-90894744D01*
X136042778Y-91112250D01*
X136042778Y-91112253D01*
X136007000Y-91338146D01*
X107032999Y-91338146D01*
X107032999Y-90452128D01*
X107026591Y-90392517D01*
X107016841Y-90366377D01*
X106976297Y-90257671D01*
X106976293Y-90257664D01*
X106890047Y-90142455D01*
X106890044Y-90142452D01*
X106774835Y-90056206D01*
X106774828Y-90056202D01*
X106639982Y-90005908D01*
X106639983Y-90005908D01*
X106580383Y-89999501D01*
X106580381Y-89999500D01*
X106580373Y-89999500D01*
X106580364Y-89999500D01*
X104579629Y-89999500D01*
X104579623Y-89999501D01*
X104520016Y-90005908D01*
X104385171Y-90056202D01*
X104385164Y-90056206D01*
X104269955Y-90142452D01*
X104269952Y-90142455D01*
X104183706Y-90257664D01*
X104183703Y-90257670D01*
X104173308Y-90285541D01*
X104131436Y-90341474D01*
X104065972Y-90365891D01*
X103997699Y-90351039D01*
X103984250Y-90342531D01*
X103801538Y-90209783D01*
X103597755Y-90105950D01*
X103380248Y-90035278D01*
X103194812Y-90005908D01*
X103154354Y-89999500D01*
X102925646Y-89999500D01*
X102885188Y-90005908D01*
X102699753Y-90035278D01*
X102699750Y-90035278D01*
X102482244Y-90105950D01*
X102278461Y-90209783D01*
X102212551Y-90257670D01*
X102093434Y-90344214D01*
X102093432Y-90344216D01*
X102093431Y-90344216D01*
X101931715Y-90505932D01*
X101870318Y-90590438D01*
X101814987Y-90633103D01*
X101745374Y-90639082D01*
X101683579Y-90606476D01*
X101669682Y-90590438D01*
X101658773Y-90575423D01*
X101608286Y-90505934D01*
X101446566Y-90344214D01*
X101261538Y-90209783D01*
X101057755Y-90105950D01*
X100840248Y-90035278D01*
X100654812Y-90005908D01*
X100614354Y-89999500D01*
X100385646Y-89999500D01*
X100345188Y-90005908D01*
X100159753Y-90035278D01*
X100159750Y-90035278D01*
X99942244Y-90105950D01*
X99738461Y-90209783D01*
X99672551Y-90257670D01*
X99553434Y-90344214D01*
X99553432Y-90344216D01*
X99553431Y-90344216D01*
X99391716Y-90505931D01*
X99391716Y-90505932D01*
X99391714Y-90505934D01*
X99333980Y-90585396D01*
X99257283Y-90690961D01*
X99153450Y-90894744D01*
X99082778Y-91112250D01*
X99082778Y-91112253D01*
X99047000Y-91338146D01*
X83500000Y-91338146D01*
X83500000Y-86999998D01*
X108694532Y-86999998D01*
X108694532Y-87000001D01*
X108714364Y-87226686D01*
X108714366Y-87226697D01*
X108773258Y-87446488D01*
X108773261Y-87446497D01*
X108869431Y-87652732D01*
X108869432Y-87652734D01*
X108999954Y-87839141D01*
X109160858Y-88000045D01*
X109160861Y-88000047D01*
X109347266Y-88130568D01*
X109553504Y-88226739D01*
X109773308Y-88285635D01*
X109935230Y-88299801D01*
X109999998Y-88305468D01*
X110000000Y-88305468D01*
X110000002Y-88305468D01*
X110056673Y-88300509D01*
X110226692Y-88285635D01*
X110446496Y-88226739D01*
X110652734Y-88130568D01*
X110839139Y-88000047D01*
X111000047Y-87839139D01*
X111130568Y-87652734D01*
X111226739Y-87446496D01*
X111285635Y-87226692D01*
X111305468Y-87000000D01*
X111305468Y-86999998D01*
X118854532Y-86999998D01*
X118854532Y-87000001D01*
X118874364Y-87226686D01*
X118874366Y-87226697D01*
X118933258Y-87446488D01*
X118933261Y-87446497D01*
X119029431Y-87652732D01*
X119029432Y-87652734D01*
X119159954Y-87839141D01*
X119320858Y-88000045D01*
X119320861Y-88000047D01*
X119507266Y-88130568D01*
X119713504Y-88226739D01*
X119933308Y-88285635D01*
X120095230Y-88299801D01*
X120159998Y-88305468D01*
X120160000Y-88305468D01*
X120160002Y-88305468D01*
X120216673Y-88300509D01*
X120386692Y-88285635D01*
X120606496Y-88226739D01*
X120812734Y-88130568D01*
X120999139Y-88000047D01*
X121160047Y-87839139D01*
X121290568Y-87652734D01*
X121386739Y-87446496D01*
X121420225Y-87321524D01*
X121456590Y-87261863D01*
X121519437Y-87231334D01*
X121588812Y-87239629D01*
X121642690Y-87284114D01*
X121659775Y-87321524D01*
X121693258Y-87446488D01*
X121693261Y-87446497D01*
X121789431Y-87652732D01*
X121789432Y-87652734D01*
X121919954Y-87839141D01*
X122080858Y-88000045D01*
X122080861Y-88000047D01*
X122267266Y-88130568D01*
X122473504Y-88226739D01*
X122693308Y-88285635D01*
X122855230Y-88299801D01*
X122919998Y-88305468D01*
X122920000Y-88305468D01*
X122920002Y-88305468D01*
X122976673Y-88300509D01*
X123146692Y-88285635D01*
X123366496Y-88226739D01*
X123572734Y-88130568D01*
X123759139Y-88000047D01*
X123920047Y-87839139D01*
X124050568Y-87652734D01*
X124146739Y-87446496D01*
X124205635Y-87226692D01*
X124225468Y-87000000D01*
X124225468Y-86999998D01*
X131774532Y-86999998D01*
X131774532Y-87000001D01*
X131794364Y-87226686D01*
X131794366Y-87226697D01*
X131853258Y-87446488D01*
X131853261Y-87446497D01*
X131949431Y-87652732D01*
X131949432Y-87652734D01*
X132079954Y-87839141D01*
X132240858Y-88000045D01*
X132240861Y-88000047D01*
X132427266Y-88130568D01*
X132633504Y-88226739D01*
X132853308Y-88285635D01*
X133015230Y-88299801D01*
X133079998Y-88305468D01*
X133080000Y-88305468D01*
X133080002Y-88305468D01*
X133136673Y-88300509D01*
X133306692Y-88285635D01*
X133526496Y-88226739D01*
X133732734Y-88130568D01*
X133919139Y-88000047D01*
X134080047Y-87839139D01*
X134210568Y-87652734D01*
X134306739Y-87446496D01*
X134365635Y-87226692D01*
X134385468Y-87000000D01*
X134365635Y-86773308D01*
X134306739Y-86553504D01*
X134210568Y-86347266D01*
X134080047Y-86160861D01*
X134080045Y-86160858D01*
X133919141Y-85999954D01*
X133732734Y-85869432D01*
X133732732Y-85869431D01*
X133526497Y-85773261D01*
X133526488Y-85773258D01*
X133306697Y-85714366D01*
X133306693Y-85714365D01*
X133306692Y-85714365D01*
X133306691Y-85714364D01*
X133306686Y-85714364D01*
X133080002Y-85694532D01*
X133079998Y-85694532D01*
X132853313Y-85714364D01*
X132853302Y-85714366D01*
X132633511Y-85773258D01*
X132633502Y-85773261D01*
X132427267Y-85869431D01*
X132427265Y-85869432D01*
X132240858Y-85999954D01*
X132079954Y-86160858D01*
X131949432Y-86347265D01*
X131949431Y-86347267D01*
X131853261Y-86553502D01*
X131853258Y-86553511D01*
X131794366Y-86773302D01*
X131794364Y-86773313D01*
X131774532Y-86999998D01*
X124225468Y-86999998D01*
X124205635Y-86773308D01*
X124146739Y-86553504D01*
X124050568Y-86347266D01*
X123920047Y-86160861D01*
X123920045Y-86160858D01*
X123759141Y-85999954D01*
X123572734Y-85869432D01*
X123572732Y-85869431D01*
X123366497Y-85773261D01*
X123366488Y-85773258D01*
X123146697Y-85714366D01*
X123146693Y-85714365D01*
X123146692Y-85714365D01*
X123146691Y-85714364D01*
X123146686Y-85714364D01*
X122920002Y-85694532D01*
X122919998Y-85694532D01*
X122693313Y-85714364D01*
X122693302Y-85714366D01*
X122473511Y-85773258D01*
X122473502Y-85773261D01*
X122267267Y-85869431D01*
X122267265Y-85869432D01*
X122080858Y-85999954D01*
X121919954Y-86160858D01*
X121789432Y-86347265D01*
X121789431Y-86347267D01*
X121693261Y-86553502D01*
X121693258Y-86553511D01*
X121659775Y-86678475D01*
X121623410Y-86738136D01*
X121560563Y-86768665D01*
X121491188Y-86760370D01*
X121437310Y-86715885D01*
X121420225Y-86678475D01*
X121386741Y-86553511D01*
X121386738Y-86553502D01*
X121290568Y-86347267D01*
X121290567Y-86347265D01*
X121160045Y-86160858D01*
X120999141Y-85999954D01*
X120812734Y-85869432D01*
X120812732Y-85869431D01*
X120606497Y-85773261D01*
X120606488Y-85773258D01*
X120386697Y-85714366D01*
X120386693Y-85714365D01*
X120386692Y-85714365D01*
X120386691Y-85714364D01*
X120386686Y-85714364D01*
X120160002Y-85694532D01*
X120159998Y-85694532D01*
X119933313Y-85714364D01*
X119933302Y-85714366D01*
X119713511Y-85773258D01*
X119713502Y-85773261D01*
X119507267Y-85869431D01*
X119507265Y-85869432D01*
X119320858Y-85999954D01*
X119159954Y-86160858D01*
X119029432Y-86347265D01*
X119029431Y-86347267D01*
X118933261Y-86553502D01*
X118933258Y-86553511D01*
X118874366Y-86773302D01*
X118874364Y-86773313D01*
X118854532Y-86999998D01*
X111305468Y-86999998D01*
X111285635Y-86773308D01*
X111226739Y-86553504D01*
X111130568Y-86347266D01*
X111000047Y-86160861D01*
X111000045Y-86160858D01*
X110839141Y-85999954D01*
X110652734Y-85869432D01*
X110652732Y-85869431D01*
X110446497Y-85773261D01*
X110446488Y-85773258D01*
X110226697Y-85714366D01*
X110226693Y-85714365D01*
X110226692Y-85714365D01*
X110226691Y-85714364D01*
X110226686Y-85714364D01*
X110000002Y-85694532D01*
X109999998Y-85694532D01*
X109773313Y-85714364D01*
X109773302Y-85714366D01*
X109553511Y-85773258D01*
X109553502Y-85773261D01*
X109347267Y-85869431D01*
X109347265Y-85869432D01*
X109160858Y-85999954D01*
X108999954Y-86160858D01*
X108869432Y-86347265D01*
X108869431Y-86347267D01*
X108773261Y-86553502D01*
X108773258Y-86553511D01*
X108714366Y-86773302D01*
X108714364Y-86773313D01*
X108694532Y-86999998D01*
X83500000Y-86999998D01*
X83500000Y-81499998D01*
X104614532Y-81499998D01*
X104614532Y-81500001D01*
X104634364Y-81726686D01*
X104634366Y-81726697D01*
X104693258Y-81946488D01*
X104693261Y-81946497D01*
X104789431Y-82152732D01*
X104789432Y-82152734D01*
X104919954Y-82339141D01*
X105080858Y-82500045D01*
X105080861Y-82500047D01*
X105267266Y-82630568D01*
X105473504Y-82726739D01*
X105693308Y-82785635D01*
X105855230Y-82799801D01*
X105919998Y-82805468D01*
X105920000Y-82805468D01*
X105920002Y-82805468D01*
X105976673Y-82800509D01*
X106146692Y-82785635D01*
X106366496Y-82726739D01*
X106572734Y-82630568D01*
X106759139Y-82500047D01*
X106920047Y-82339139D01*
X107050568Y-82152734D01*
X107146739Y-81946496D01*
X107205635Y-81726692D01*
X107225468Y-81500000D01*
X107225468Y-81499998D01*
X114774532Y-81499998D01*
X114774532Y-81500001D01*
X114794364Y-81726686D01*
X114794366Y-81726697D01*
X114853258Y-81946488D01*
X114853261Y-81946497D01*
X114949431Y-82152732D01*
X114949432Y-82152734D01*
X115079954Y-82339141D01*
X115240858Y-82500045D01*
X115240861Y-82500047D01*
X115427266Y-82630568D01*
X115633504Y-82726739D01*
X115853308Y-82785635D01*
X116015230Y-82799801D01*
X116079998Y-82805468D01*
X116080000Y-82805468D01*
X116080002Y-82805468D01*
X116136673Y-82800509D01*
X116306692Y-82785635D01*
X116526496Y-82726739D01*
X116732734Y-82630568D01*
X116919139Y-82500047D01*
X117080047Y-82339139D01*
X117210568Y-82152734D01*
X117306739Y-81946496D01*
X117365635Y-81726692D01*
X117385468Y-81500000D01*
X117365635Y-81273308D01*
X117306739Y-81053504D01*
X117210568Y-80847266D01*
X117080047Y-80660861D01*
X117080045Y-80660858D01*
X116919141Y-80499954D01*
X116732734Y-80369432D01*
X116732732Y-80369431D01*
X116626325Y-80319812D01*
X121499500Y-80319812D01*
X121499500Y-82415547D01*
X121499501Y-82415553D01*
X121505908Y-82475160D01*
X121556202Y-82610005D01*
X121556206Y-82610012D01*
X121642452Y-82725221D01*
X121642455Y-82725224D01*
X121757664Y-82811470D01*
X121757671Y-82811474D01*
X121892517Y-82861768D01*
X121892516Y-82861768D01*
X121899444Y-82862512D01*
X121952127Y-82868177D01*
X124047872Y-82868176D01*
X124107483Y-82861768D01*
X124242331Y-82811473D01*
X124357546Y-82725223D01*
X124443796Y-82610008D01*
X124494091Y-82475160D01*
X124500500Y-82415550D01*
X124500499Y-80319805D01*
X124494091Y-80260194D01*
X124476998Y-80214366D01*
X124443797Y-80125348D01*
X124443793Y-80125341D01*
X124357547Y-80010132D01*
X124357544Y-80010129D01*
X124242335Y-79923883D01*
X124242328Y-79923879D01*
X124107482Y-79873585D01*
X124107483Y-79873585D01*
X124047883Y-79867178D01*
X124047881Y-79867177D01*
X124047873Y-79867177D01*
X124047864Y-79867177D01*
X121952129Y-79867177D01*
X121952123Y-79867178D01*
X121892516Y-79873585D01*
X121757671Y-79923879D01*
X121757664Y-79923883D01*
X121642455Y-80010129D01*
X121642452Y-80010132D01*
X121556206Y-80125341D01*
X121556202Y-80125348D01*
X121505908Y-80260194D01*
X121499501Y-80319793D01*
X121499501Y-80319800D01*
X121499500Y-80319812D01*
X116626325Y-80319812D01*
X116526497Y-80273261D01*
X116526488Y-80273258D01*
X116306697Y-80214366D01*
X116306693Y-80214365D01*
X116306692Y-80214365D01*
X116306691Y-80214364D01*
X116306686Y-80214364D01*
X116080002Y-80194532D01*
X116079998Y-80194532D01*
X115853313Y-80214364D01*
X115853302Y-80214366D01*
X115633511Y-80273258D01*
X115633502Y-80273261D01*
X115427267Y-80369431D01*
X115427265Y-80369432D01*
X115240858Y-80499954D01*
X115079954Y-80660858D01*
X114949432Y-80847265D01*
X114949431Y-80847267D01*
X114853261Y-81053502D01*
X114853258Y-81053511D01*
X114794366Y-81273302D01*
X114794364Y-81273313D01*
X114774532Y-81499998D01*
X107225468Y-81499998D01*
X107205635Y-81273308D01*
X107146739Y-81053504D01*
X107050568Y-80847266D01*
X106920047Y-80660861D01*
X106920045Y-80660858D01*
X106759141Y-80499954D01*
X106572734Y-80369432D01*
X106572732Y-80369431D01*
X106366497Y-80273261D01*
X106366488Y-80273258D01*
X106146697Y-80214366D01*
X106146693Y-80214365D01*
X106146692Y-80214365D01*
X106146691Y-80214364D01*
X106146686Y-80214364D01*
X105920002Y-80194532D01*
X105919998Y-80194532D01*
X105693313Y-80214364D01*
X105693302Y-80214366D01*
X105473511Y-80273258D01*
X105473502Y-80273261D01*
X105267267Y-80369431D01*
X105267265Y-80369432D01*
X105080858Y-80499954D01*
X104919954Y-80660858D01*
X104789432Y-80847265D01*
X104789431Y-80847267D01*
X104693261Y-81053502D01*
X104693258Y-81053511D01*
X104634366Y-81273302D01*
X104634364Y-81273313D01*
X104614532Y-81499998D01*
X83500000Y-81499998D01*
X83500000Y-76878711D01*
X86649500Y-76878711D01*
X86649500Y-77121288D01*
X86681161Y-77361785D01*
X86743947Y-77596104D01*
X86806246Y-77746507D01*
X86836776Y-77820212D01*
X86958064Y-78030289D01*
X86958066Y-78030292D01*
X86958067Y-78030293D01*
X87105733Y-78222736D01*
X87105739Y-78222743D01*
X87277256Y-78394260D01*
X87277262Y-78394265D01*
X87469711Y-78541936D01*
X87679788Y-78663224D01*
X87903900Y-78756054D01*
X88138211Y-78818838D01*
X88318586Y-78842584D01*
X88378711Y-78850500D01*
X88378712Y-78850500D01*
X88621289Y-78850500D01*
X88669388Y-78844167D01*
X88861789Y-78818838D01*
X89096100Y-78756054D01*
X89320212Y-78663224D01*
X89530289Y-78541936D01*
X89722738Y-78394265D01*
X89894265Y-78222738D01*
X90041936Y-78030289D01*
X90059425Y-77999998D01*
X104694532Y-77999998D01*
X104694532Y-78000001D01*
X104714364Y-78226686D01*
X104714366Y-78226697D01*
X104773258Y-78446488D01*
X104773261Y-78446497D01*
X104869431Y-78652732D01*
X104869432Y-78652734D01*
X104999954Y-78839141D01*
X105160858Y-79000045D01*
X105160861Y-79000047D01*
X105347266Y-79130568D01*
X105553504Y-79226739D01*
X105773308Y-79285635D01*
X105935230Y-79299801D01*
X105999998Y-79305468D01*
X106000000Y-79305468D01*
X106000002Y-79305468D01*
X106056673Y-79300509D01*
X106226692Y-79285635D01*
X106446496Y-79226739D01*
X106652734Y-79130568D01*
X106839139Y-79000047D01*
X107000047Y-78839139D01*
X107130568Y-78652734D01*
X107226739Y-78446496D01*
X107285635Y-78226692D01*
X107305468Y-78000000D01*
X107285635Y-77773308D01*
X107226739Y-77553504D01*
X107130568Y-77347266D01*
X107000047Y-77160861D01*
X107000045Y-77160858D01*
X106839141Y-76999954D01*
X106652734Y-76869432D01*
X106652730Y-76869430D01*
X106637022Y-76862105D01*
X106584583Y-76815931D01*
X106565433Y-76748737D01*
X106585650Y-76681857D01*
X106637028Y-76637340D01*
X106652481Y-76630134D01*
X106725471Y-76579024D01*
X106514118Y-76367671D01*
X121494357Y-76367671D01*
X121494357Y-76367682D01*
X121514890Y-76615489D01*
X121514892Y-76615501D01*
X121575936Y-76856558D01*
X121675826Y-77084283D01*
X121811833Y-77292459D01*
X121811836Y-77292462D01*
X121980256Y-77475415D01*
X122176491Y-77628151D01*
X122395190Y-77746505D01*
X122630386Y-77827248D01*
X122875665Y-77868177D01*
X123124335Y-77868177D01*
X123369614Y-77827248D01*
X123604810Y-77746505D01*
X123823509Y-77628151D01*
X124019744Y-77475415D01*
X124188164Y-77292462D01*
X124324173Y-77084284D01*
X124414346Y-76878711D01*
X152649500Y-76878711D01*
X152649500Y-77121288D01*
X152681161Y-77361785D01*
X152743947Y-77596104D01*
X152806246Y-77746507D01*
X152836776Y-77820212D01*
X152958064Y-78030289D01*
X152958066Y-78030292D01*
X152958067Y-78030293D01*
X153105733Y-78222736D01*
X153105739Y-78222743D01*
X153277256Y-78394260D01*
X153277262Y-78394265D01*
X153469711Y-78541936D01*
X153679788Y-78663224D01*
X153903900Y-78756054D01*
X154138211Y-78818838D01*
X154318586Y-78842584D01*
X154378711Y-78850500D01*
X154378712Y-78850500D01*
X154621289Y-78850500D01*
X154669388Y-78844167D01*
X154861789Y-78818838D01*
X155096100Y-78756054D01*
X155320212Y-78663224D01*
X155530289Y-78541936D01*
X155722738Y-78394265D01*
X155894265Y-78222738D01*
X156041936Y-78030289D01*
X156163224Y-77820212D01*
X156256054Y-77596100D01*
X156318838Y-77361789D01*
X156350500Y-77121288D01*
X156350500Y-76878712D01*
X156347583Y-76856558D01*
X156333389Y-76748737D01*
X156318838Y-76638211D01*
X156256054Y-76403900D01*
X156163224Y-76179788D01*
X156041936Y-75969711D01*
X155952805Y-75853553D01*
X155894266Y-75777263D01*
X155894260Y-75777256D01*
X155722743Y-75605739D01*
X155722736Y-75605733D01*
X155530293Y-75458067D01*
X155530292Y-75458066D01*
X155530289Y-75458064D01*
X155320212Y-75336776D01*
X155320205Y-75336773D01*
X155096104Y-75243947D01*
X154861785Y-75181161D01*
X154621289Y-75149500D01*
X154621288Y-75149500D01*
X154378712Y-75149500D01*
X154378711Y-75149500D01*
X154138214Y-75181161D01*
X153903895Y-75243947D01*
X153679794Y-75336773D01*
X153679785Y-75336777D01*
X153469706Y-75458067D01*
X153277263Y-75605733D01*
X153277256Y-75605739D01*
X153105739Y-75777256D01*
X153105733Y-75777263D01*
X152958067Y-75969706D01*
X152836777Y-76179785D01*
X152836773Y-76179794D01*
X152743947Y-76403895D01*
X152681161Y-76638214D01*
X152649500Y-76878711D01*
X124414346Y-76878711D01*
X124424063Y-76856558D01*
X124485108Y-76615498D01*
X124485109Y-76615489D01*
X124505643Y-76367682D01*
X124505643Y-76367671D01*
X124485109Y-76119864D01*
X124485107Y-76119852D01*
X124424063Y-75878795D01*
X124324173Y-75651070D01*
X124188166Y-75442894D01*
X124151253Y-75402796D01*
X124019744Y-75259939D01*
X123823509Y-75107203D01*
X123823507Y-75107202D01*
X123823506Y-75107201D01*
X123604811Y-74988849D01*
X123604802Y-74988846D01*
X123369616Y-74908106D01*
X123124335Y-74867177D01*
X122875665Y-74867177D01*
X122630383Y-74908106D01*
X122395197Y-74988846D01*
X122395188Y-74988849D01*
X122176493Y-75107201D01*
X121980257Y-75259938D01*
X121811833Y-75442894D01*
X121675826Y-75651070D01*
X121575936Y-75878795D01*
X121514892Y-76119852D01*
X121514890Y-76119864D01*
X121494357Y-76367671D01*
X106514118Y-76367671D01*
X106046447Y-75900000D01*
X106052661Y-75900000D01*
X106154394Y-75872741D01*
X106245606Y-75820080D01*
X106320080Y-75745606D01*
X106372741Y-75654394D01*
X106400000Y-75552661D01*
X106400000Y-75546447D01*
X107079024Y-76225471D01*
X107130136Y-76152478D01*
X107226264Y-75946331D01*
X107226269Y-75946317D01*
X107285139Y-75726610D01*
X107285141Y-75726599D01*
X107304966Y-75500002D01*
X107304966Y-75499997D01*
X107285141Y-75273400D01*
X107285139Y-75273389D01*
X107226269Y-75053682D01*
X107226264Y-75053668D01*
X107130136Y-74847521D01*
X107130132Y-74847513D01*
X107079025Y-74774526D01*
X106400000Y-75453551D01*
X106400000Y-75447339D01*
X106372741Y-75345606D01*
X106320080Y-75254394D01*
X106245606Y-75179920D01*
X106154394Y-75127259D01*
X106052661Y-75100000D01*
X106046448Y-75100000D01*
X106725472Y-74420974D01*
X106652478Y-74369863D01*
X106446331Y-74273735D01*
X106446317Y-74273730D01*
X106226610Y-74214860D01*
X106226599Y-74214858D01*
X106000002Y-74195034D01*
X105999998Y-74195034D01*
X105773400Y-74214858D01*
X105773389Y-74214860D01*
X105553682Y-74273730D01*
X105553673Y-74273734D01*
X105347516Y-74369866D01*
X105347512Y-74369868D01*
X105274526Y-74420973D01*
X105274526Y-74420974D01*
X105953553Y-75100000D01*
X105947339Y-75100000D01*
X105845606Y-75127259D01*
X105754394Y-75179920D01*
X105679920Y-75254394D01*
X105627259Y-75345606D01*
X105600000Y-75447339D01*
X105600000Y-75453552D01*
X104920974Y-74774526D01*
X104920973Y-74774526D01*
X104869868Y-74847512D01*
X104869866Y-74847516D01*
X104773734Y-75053673D01*
X104773730Y-75053682D01*
X104714860Y-75273389D01*
X104714858Y-75273400D01*
X104695034Y-75499997D01*
X104695034Y-75500002D01*
X104714858Y-75726599D01*
X104714860Y-75726610D01*
X104773730Y-75946317D01*
X104773735Y-75946331D01*
X104869863Y-76152478D01*
X104920974Y-76225472D01*
X105600000Y-75546446D01*
X105600000Y-75552661D01*
X105627259Y-75654394D01*
X105679920Y-75745606D01*
X105754394Y-75820080D01*
X105845606Y-75872741D01*
X105947339Y-75900000D01*
X105953553Y-75900000D01*
X105274526Y-76579025D01*
X105347513Y-76630132D01*
X105347515Y-76630133D01*
X105362973Y-76637341D01*
X105415413Y-76683513D01*
X105434566Y-76750706D01*
X105414351Y-76817587D01*
X105362979Y-76862104D01*
X105347270Y-76869429D01*
X105347265Y-76869432D01*
X105160858Y-76999954D01*
X104999954Y-77160858D01*
X104869432Y-77347265D01*
X104869431Y-77347267D01*
X104773261Y-77553502D01*
X104773258Y-77553511D01*
X104714366Y-77773302D01*
X104714364Y-77773313D01*
X104694532Y-77999998D01*
X90059425Y-77999998D01*
X90163224Y-77820212D01*
X90256054Y-77596100D01*
X90318838Y-77361789D01*
X90350500Y-77121288D01*
X90350500Y-76878712D01*
X90347583Y-76856558D01*
X90333389Y-76748737D01*
X90318838Y-76638211D01*
X90256054Y-76403900D01*
X90163224Y-76179788D01*
X90041936Y-75969711D01*
X89952805Y-75853553D01*
X89894266Y-75777263D01*
X89894260Y-75777256D01*
X89722743Y-75605739D01*
X89722736Y-75605733D01*
X89530293Y-75458067D01*
X89530292Y-75458066D01*
X89530289Y-75458064D01*
X89320212Y-75336776D01*
X89320205Y-75336773D01*
X89096104Y-75243947D01*
X88861785Y-75181161D01*
X88621289Y-75149500D01*
X88621288Y-75149500D01*
X88378712Y-75149500D01*
X88378711Y-75149500D01*
X88138214Y-75181161D01*
X87903895Y-75243947D01*
X87679794Y-75336773D01*
X87679785Y-75336777D01*
X87469706Y-75458067D01*
X87277263Y-75605733D01*
X87277256Y-75605739D01*
X87105739Y-75777256D01*
X87105733Y-75777263D01*
X86958067Y-75969706D01*
X86836777Y-76179785D01*
X86836773Y-76179794D01*
X86743947Y-76403895D01*
X86681161Y-76638214D01*
X86649500Y-76878711D01*
X83500000Y-76878711D01*
X83500000Y-73699983D01*
X95149500Y-73699983D01*
X95149500Y-75300001D01*
X95149501Y-75300018D01*
X95160000Y-75402796D01*
X95160001Y-75402799D01*
X95194031Y-75505493D01*
X95215186Y-75569334D01*
X95307288Y-75718656D01*
X95431344Y-75842712D01*
X95580666Y-75934814D01*
X95747203Y-75989999D01*
X95849991Y-76000500D01*
X97150008Y-76000499D01*
X97252797Y-75989999D01*
X97419334Y-75934814D01*
X97568656Y-75842712D01*
X97692712Y-75718656D01*
X97784814Y-75569334D01*
X97784814Y-75569331D01*
X97788448Y-75563441D01*
X97840395Y-75516716D01*
X97909358Y-75505493D01*
X97973440Y-75533336D01*
X97981668Y-75540856D01*
X98120535Y-75679723D01*
X98120540Y-75679727D01*
X98292442Y-75804620D01*
X98481782Y-75901095D01*
X98683871Y-75966757D01*
X98750000Y-75977231D01*
X98750000Y-74933012D01*
X98807007Y-74965925D01*
X98934174Y-75000000D01*
X99065826Y-75000000D01*
X99192993Y-74965925D01*
X99250000Y-74933012D01*
X99250000Y-75977230D01*
X99316126Y-75966757D01*
X99316129Y-75966757D01*
X99518217Y-75901095D01*
X99707557Y-75804620D01*
X99879459Y-75679727D01*
X99879464Y-75679723D01*
X100029723Y-75529464D01*
X100029727Y-75529459D01*
X100154620Y-75357557D01*
X100251095Y-75168217D01*
X100316757Y-74966130D01*
X100316757Y-74966127D01*
X100350000Y-74756246D01*
X100350000Y-74750000D01*
X99433012Y-74750000D01*
X99465925Y-74692993D01*
X99500000Y-74565826D01*
X99500000Y-74434174D01*
X99465925Y-74307007D01*
X99433012Y-74250000D01*
X100350000Y-74250000D01*
X100350000Y-74243753D01*
X100316757Y-74033872D01*
X100316757Y-74033869D01*
X100251095Y-73831782D01*
X100183939Y-73699983D01*
X134649500Y-73699983D01*
X134649500Y-75300001D01*
X134649501Y-75300018D01*
X134660000Y-75402796D01*
X134660001Y-75402799D01*
X134694031Y-75505493D01*
X134715186Y-75569334D01*
X134807288Y-75718656D01*
X134931344Y-75842712D01*
X135080666Y-75934814D01*
X135247203Y-75989999D01*
X135349991Y-76000500D01*
X136650008Y-76000499D01*
X136752797Y-75989999D01*
X136919334Y-75934814D01*
X137068656Y-75842712D01*
X137192712Y-75718656D01*
X137284814Y-75569334D01*
X137284814Y-75569331D01*
X137288448Y-75563441D01*
X137340395Y-75516716D01*
X137409358Y-75505493D01*
X137473440Y-75533336D01*
X137481668Y-75540856D01*
X137620535Y-75679723D01*
X137620540Y-75679727D01*
X137792442Y-75804620D01*
X137981782Y-75901095D01*
X138183871Y-75966757D01*
X138250000Y-75977231D01*
X138250000Y-74933012D01*
X138307007Y-74965925D01*
X138434174Y-75000000D01*
X138565826Y-75000000D01*
X138692993Y-74965925D01*
X138750000Y-74933012D01*
X138750000Y-75977230D01*
X138816126Y-75966757D01*
X138816129Y-75966757D01*
X139018217Y-75901095D01*
X139207557Y-75804620D01*
X139379459Y-75679727D01*
X139379464Y-75679723D01*
X139529723Y-75529464D01*
X139529727Y-75529459D01*
X139654620Y-75357557D01*
X139751095Y-75168217D01*
X139816757Y-74966130D01*
X139816757Y-74966127D01*
X139850000Y-74756246D01*
X139850000Y-74750000D01*
X138933012Y-74750000D01*
X138965925Y-74692993D01*
X139000000Y-74565826D01*
X139000000Y-74434174D01*
X138965925Y-74307007D01*
X138933012Y-74250000D01*
X139850000Y-74250000D01*
X139850000Y-74243753D01*
X139816757Y-74033872D01*
X139816757Y-74033869D01*
X139751095Y-73831782D01*
X139654620Y-73642442D01*
X139529727Y-73470540D01*
X139529723Y-73470535D01*
X139379464Y-73320276D01*
X139379459Y-73320272D01*
X139207557Y-73195379D01*
X139018215Y-73098903D01*
X138816124Y-73033241D01*
X138750000Y-73022768D01*
X138750000Y-74066988D01*
X138692993Y-74034075D01*
X138565826Y-74000000D01*
X138434174Y-74000000D01*
X138307007Y-74034075D01*
X138250000Y-74066988D01*
X138250000Y-73022768D01*
X138249999Y-73022768D01*
X138183875Y-73033241D01*
X137981784Y-73098903D01*
X137792442Y-73195379D01*
X137620541Y-73320271D01*
X137481668Y-73459144D01*
X137420345Y-73492628D01*
X137350653Y-73487644D01*
X137294720Y-73445772D01*
X137288448Y-73436558D01*
X137192712Y-73281344D01*
X137068657Y-73157289D01*
X137068656Y-73157288D01*
X136919334Y-73065186D01*
X136752797Y-73010001D01*
X136752795Y-73010000D01*
X136650010Y-72999500D01*
X135349998Y-72999500D01*
X135349981Y-72999501D01*
X135247203Y-73010000D01*
X135247200Y-73010001D01*
X135080668Y-73065185D01*
X135080663Y-73065187D01*
X134931342Y-73157289D01*
X134807289Y-73281342D01*
X134715187Y-73430663D01*
X134715185Y-73430668D01*
X134710180Y-73445772D01*
X134660001Y-73597203D01*
X134660001Y-73597204D01*
X134660000Y-73597204D01*
X134649500Y-73699983D01*
X100183939Y-73699983D01*
X100154620Y-73642442D01*
X100029727Y-73470540D01*
X100029723Y-73470535D01*
X99879464Y-73320276D01*
X99879459Y-73320272D01*
X99707557Y-73195379D01*
X99518215Y-73098903D01*
X99316124Y-73033241D01*
X99250000Y-73022768D01*
X99250000Y-74066988D01*
X99192993Y-74034075D01*
X99065826Y-74000000D01*
X98934174Y-74000000D01*
X98807007Y-74034075D01*
X98750000Y-74066988D01*
X98750000Y-73022768D01*
X98749999Y-73022768D01*
X98683875Y-73033241D01*
X98481784Y-73098903D01*
X98292442Y-73195379D01*
X98120541Y-73320271D01*
X97981668Y-73459144D01*
X97920345Y-73492628D01*
X97850653Y-73487644D01*
X97794720Y-73445772D01*
X97788448Y-73436558D01*
X97692712Y-73281344D01*
X97568657Y-73157289D01*
X97568656Y-73157288D01*
X97419334Y-73065186D01*
X97252797Y-73010001D01*
X97252795Y-73010000D01*
X97150010Y-72999500D01*
X95849998Y-72999500D01*
X95849981Y-72999501D01*
X95747203Y-73010000D01*
X95747200Y-73010001D01*
X95580668Y-73065185D01*
X95580663Y-73065187D01*
X95431342Y-73157289D01*
X95307289Y-73281342D01*
X95215187Y-73430663D01*
X95215185Y-73430668D01*
X95210180Y-73445772D01*
X95160001Y-73597203D01*
X95160001Y-73597204D01*
X95160000Y-73597204D01*
X95149500Y-73699983D01*
X83500000Y-73699983D01*
X83500000Y-71624000D01*
X83519685Y-71556961D01*
X83572489Y-71511206D01*
X83624000Y-71500000D01*
X159376000Y-71500000D01*
X159443039Y-71519685D01*
G37*
%TD.AperFunction*%
%TD*%
%TA.AperFunction,Conductor*%
%TO.N,GND*%
G36*
X98250000Y-103500000D02*
G01*
X97500000Y-104500000D01*
X97500000Y-109000000D01*
X98500000Y-110000000D01*
X101131454Y-110000000D01*
X101198493Y-110019685D01*
X101244248Y-110072489D01*
X101254192Y-110141647D01*
X101225167Y-110205203D01*
X101166389Y-110242977D01*
X101163547Y-110243775D01*
X101053511Y-110273258D01*
X101053502Y-110273261D01*
X100847267Y-110369431D01*
X100847265Y-110369432D01*
X100660858Y-110499954D01*
X100499954Y-110660858D01*
X100369432Y-110847265D01*
X100369431Y-110847267D01*
X100273261Y-111053502D01*
X100273258Y-111053511D01*
X100214366Y-111273302D01*
X100214364Y-111273313D01*
X100194532Y-111499998D01*
X100194532Y-111500001D01*
X100214364Y-111726686D01*
X100214366Y-111726697D01*
X100273258Y-111946488D01*
X100273261Y-111946497D01*
X100369431Y-112152732D01*
X100369432Y-112152734D01*
X100499954Y-112339141D01*
X100660858Y-112500045D01*
X100660861Y-112500047D01*
X100847266Y-112630568D01*
X100862975Y-112637893D01*
X100915414Y-112684064D01*
X100934567Y-112751257D01*
X100914352Y-112818138D01*
X100862979Y-112862656D01*
X100847514Y-112869867D01*
X100847512Y-112869868D01*
X100774526Y-112920973D01*
X100774526Y-112920974D01*
X101453553Y-113600000D01*
X101447339Y-113600000D01*
X101345606Y-113627259D01*
X101254394Y-113679920D01*
X101179920Y-113754394D01*
X101127259Y-113845606D01*
X101100000Y-113947339D01*
X101100000Y-113953552D01*
X100420974Y-113274526D01*
X100420973Y-113274526D01*
X100369868Y-113347512D01*
X100369866Y-113347516D01*
X100273734Y-113553673D01*
X100273730Y-113553682D01*
X100214860Y-113773389D01*
X100214858Y-113773400D01*
X100195034Y-113999997D01*
X100195034Y-114000002D01*
X100214858Y-114226599D01*
X100214860Y-114226610D01*
X100273730Y-114446317D01*
X100273735Y-114446331D01*
X100369863Y-114652478D01*
X100420974Y-114725472D01*
X101100000Y-114046446D01*
X101100000Y-114052661D01*
X101127259Y-114154394D01*
X101179920Y-114245606D01*
X101254394Y-114320080D01*
X101345606Y-114372741D01*
X101447339Y-114400000D01*
X101453553Y-114400000D01*
X100774526Y-115079025D01*
X100847513Y-115130132D01*
X100847521Y-115130136D01*
X101053668Y-115226264D01*
X101053682Y-115226269D01*
X101273389Y-115285139D01*
X101273400Y-115285141D01*
X101499998Y-115304966D01*
X101500002Y-115304966D01*
X101726599Y-115285141D01*
X101726610Y-115285139D01*
X101946317Y-115226269D01*
X101946331Y-115226264D01*
X102152478Y-115130136D01*
X102225471Y-115079024D01*
X101546447Y-114400000D01*
X101552661Y-114400000D01*
X101654394Y-114372741D01*
X101745606Y-114320080D01*
X101820080Y-114245606D01*
X101872741Y-114154394D01*
X101900000Y-114052661D01*
X101900000Y-114046447D01*
X102579024Y-114725471D01*
X102630136Y-114652478D01*
X102726264Y-114446331D01*
X102726269Y-114446317D01*
X102785139Y-114226610D01*
X102785141Y-114226599D01*
X102804966Y-114000002D01*
X102804966Y-113999997D01*
X102785141Y-113773400D01*
X102785139Y-113773389D01*
X102726269Y-113553682D01*
X102726264Y-113553668D01*
X102630136Y-113347521D01*
X102630132Y-113347513D01*
X102579025Y-113274526D01*
X101900000Y-113953551D01*
X101900000Y-113947339D01*
X101872741Y-113845606D01*
X101820080Y-113754394D01*
X101745606Y-113679920D01*
X101654394Y-113627259D01*
X101552661Y-113600000D01*
X101546448Y-113600000D01*
X102225472Y-112920974D01*
X102152480Y-112869864D01*
X102137024Y-112862657D01*
X102084585Y-112816484D01*
X102065433Y-112749290D01*
X102085649Y-112682409D01*
X102137023Y-112637893D01*
X102152734Y-112630568D01*
X102339139Y-112500047D01*
X102500047Y-112339139D01*
X102630568Y-112152734D01*
X102726739Y-111946496D01*
X102785635Y-111726692D01*
X102805468Y-111500000D01*
X102785635Y-111273308D01*
X102726739Y-111053504D01*
X102630568Y-110847266D01*
X102500047Y-110660861D01*
X102500045Y-110660858D01*
X102339141Y-110499954D01*
X102152734Y-110369432D01*
X102152732Y-110369431D01*
X101946497Y-110273261D01*
X101946488Y-110273258D01*
X101836453Y-110243775D01*
X101776792Y-110207410D01*
X101746263Y-110144563D01*
X101754558Y-110075188D01*
X101799043Y-110021310D01*
X101865595Y-110000035D01*
X101868546Y-110000000D01*
X103948638Y-110000000D01*
X104015677Y-110019685D01*
X104036319Y-110036319D01*
X104963681Y-110963681D01*
X104997166Y-111025004D01*
X105000000Y-111051362D01*
X105000000Y-121000000D01*
X106000000Y-122000000D01*
X131975500Y-122000000D01*
X132042539Y-122019685D01*
X132088294Y-122072489D01*
X132099500Y-122124000D01*
X132099500Y-123009951D01*
X132079815Y-123076990D01*
X132063181Y-123097632D01*
X131999954Y-123160858D01*
X131869432Y-123347265D01*
X131869431Y-123347267D01*
X131773261Y-123553502D01*
X131773258Y-123553511D01*
X131714366Y-123773302D01*
X131714364Y-123773313D01*
X131694532Y-123999998D01*
X131694532Y-124000001D01*
X131714364Y-124226686D01*
X131714366Y-124226697D01*
X131773258Y-124446488D01*
X131773261Y-124446497D01*
X131869431Y-124652732D01*
X131869432Y-124652734D01*
X131999954Y-124839141D01*
X132160858Y-125000045D01*
X132160861Y-125000047D01*
X132347266Y-125130568D01*
X132553504Y-125226739D01*
X132773308Y-125285635D01*
X132935230Y-125299801D01*
X132999998Y-125305468D01*
X133000000Y-125305468D01*
X133000002Y-125305468D01*
X133056673Y-125300509D01*
X133226692Y-125285635D01*
X133446496Y-125226739D01*
X133652734Y-125130568D01*
X133839139Y-125000047D01*
X134000047Y-124839139D01*
X134130568Y-124652734D01*
X134226739Y-124446496D01*
X134285635Y-124226692D01*
X134305468Y-124000000D01*
X134305468Y-123999998D01*
X136694532Y-123999998D01*
X136694532Y-124000001D01*
X136714364Y-124226686D01*
X136714366Y-124226697D01*
X136773258Y-124446488D01*
X136773261Y-124446497D01*
X136869431Y-124652732D01*
X136869432Y-124652734D01*
X136999954Y-124839141D01*
X137160858Y-125000045D01*
X137160861Y-125000047D01*
X137347266Y-125130568D01*
X137553504Y-125226739D01*
X137773308Y-125285635D01*
X137935230Y-125299801D01*
X137999998Y-125305468D01*
X138000000Y-125305468D01*
X138000002Y-125305468D01*
X138056673Y-125300509D01*
X138226692Y-125285635D01*
X138446496Y-125226739D01*
X138652734Y-125130568D01*
X138839139Y-125000047D01*
X139000047Y-124839139D01*
X139130568Y-124652734D01*
X139226739Y-124446496D01*
X139285635Y-124226692D01*
X139305468Y-124000000D01*
X139285635Y-123773308D01*
X139226739Y-123553504D01*
X139130568Y-123347266D01*
X139000047Y-123160861D01*
X139000045Y-123160858D01*
X138839141Y-122999954D01*
X138652734Y-122869432D01*
X138652732Y-122869431D01*
X138446497Y-122773261D01*
X138446488Y-122773258D01*
X138226697Y-122714366D01*
X138226693Y-122714365D01*
X138226692Y-122714365D01*
X138226691Y-122714364D01*
X138226686Y-122714364D01*
X138000002Y-122694532D01*
X137999998Y-122694532D01*
X137773313Y-122714364D01*
X137773302Y-122714366D01*
X137553511Y-122773258D01*
X137553502Y-122773261D01*
X137347267Y-122869431D01*
X137347265Y-122869432D01*
X137160858Y-122999954D01*
X136999954Y-123160858D01*
X136869432Y-123347265D01*
X136869431Y-123347267D01*
X136773261Y-123553502D01*
X136773258Y-123553511D01*
X136714366Y-123773302D01*
X136714364Y-123773313D01*
X136694532Y-123999998D01*
X134305468Y-123999998D01*
X134285635Y-123773308D01*
X134226739Y-123553504D01*
X134130568Y-123347266D01*
X134000047Y-123160861D01*
X134000045Y-123160858D01*
X133936819Y-123097632D01*
X133903334Y-123036309D01*
X133900500Y-123009951D01*
X133900500Y-122124000D01*
X133920185Y-122056961D01*
X133972989Y-122011206D01*
X134024500Y-122000000D01*
X158448638Y-122000000D01*
X158515677Y-122019685D01*
X158536319Y-122036319D01*
X159463681Y-122963681D01*
X159497166Y-123025004D01*
X159500000Y-123051362D01*
X159500000Y-141376000D01*
X159480315Y-141443039D01*
X159427511Y-141488794D01*
X159376000Y-141500000D01*
X83624000Y-141500000D01*
X83556961Y-141480315D01*
X83511206Y-141427511D01*
X83500000Y-141376000D01*
X83500000Y-135878711D01*
X86649500Y-135878711D01*
X86649500Y-136121288D01*
X86681161Y-136361785D01*
X86743947Y-136596104D01*
X86821067Y-136782288D01*
X86836776Y-136820212D01*
X86958064Y-137030289D01*
X86958066Y-137030292D01*
X86958067Y-137030293D01*
X87105733Y-137222736D01*
X87105739Y-137222743D01*
X87277256Y-137394260D01*
X87277262Y-137394265D01*
X87469711Y-137541936D01*
X87679788Y-137663224D01*
X87903900Y-137756054D01*
X88138211Y-137818838D01*
X88318586Y-137842584D01*
X88378711Y-137850500D01*
X88378712Y-137850500D01*
X88621289Y-137850500D01*
X88669388Y-137844167D01*
X88861789Y-137818838D01*
X89096100Y-137756054D01*
X89320212Y-137663224D01*
X89530289Y-137541936D01*
X89722738Y-137394265D01*
X89791990Y-137325013D01*
X111900000Y-137325013D01*
X111900000Y-137750000D01*
X112719670Y-137750000D01*
X112699925Y-137769745D01*
X112650556Y-137855255D01*
X112625000Y-137950630D01*
X112625000Y-138049370D01*
X112650556Y-138144745D01*
X112699925Y-138230255D01*
X112719670Y-138250000D01*
X111900001Y-138250000D01*
X111900001Y-138674986D01*
X111910494Y-138777697D01*
X111965641Y-138944119D01*
X111965643Y-138944124D01*
X112057684Y-139093345D01*
X112181654Y-139217315D01*
X112330875Y-139309356D01*
X112330880Y-139309358D01*
X112497302Y-139364505D01*
X112497309Y-139364506D01*
X112600019Y-139374999D01*
X112749999Y-139374999D01*
X112750000Y-139374998D01*
X112750000Y-138280330D01*
X112769745Y-138300075D01*
X112855255Y-138349444D01*
X112950630Y-138375000D01*
X113049370Y-138375000D01*
X113144745Y-138349444D01*
X113230255Y-138300075D01*
X113250000Y-138280330D01*
X113250000Y-139374999D01*
X113399972Y-139374999D01*
X113399986Y-139374998D01*
X113502697Y-139364505D01*
X113669119Y-139309358D01*
X113669124Y-139309356D01*
X113818345Y-139217315D01*
X113942315Y-139093345D01*
X113981945Y-139029094D01*
X114033893Y-138982368D01*
X114102855Y-138971145D01*
X114166937Y-138998988D01*
X114175166Y-139006508D01*
X114283072Y-139114414D01*
X114423212Y-139216232D01*
X114577555Y-139294873D01*
X114742299Y-139348402D01*
X114913389Y-139375500D01*
X114913390Y-139375500D01*
X115086610Y-139375500D01*
X115086611Y-139375500D01*
X115257701Y-139348402D01*
X115422445Y-139294873D01*
X115576788Y-139216232D01*
X115716928Y-139114414D01*
X115839414Y-138991928D01*
X115899682Y-138908975D01*
X115955012Y-138866311D01*
X116024626Y-138860332D01*
X116086421Y-138892938D01*
X116100315Y-138908973D01*
X116160586Y-138991928D01*
X116283072Y-139114414D01*
X116423212Y-139216232D01*
X116577555Y-139294873D01*
X116742299Y-139348402D01*
X116913389Y-139375500D01*
X116913390Y-139375500D01*
X117086610Y-139375500D01*
X117086611Y-139375500D01*
X117257701Y-139348402D01*
X117422445Y-139294873D01*
X117576788Y-139216232D01*
X117716928Y-139114414D01*
X117839414Y-138991928D01*
X117941232Y-138851788D01*
X118019873Y-138697445D01*
X118073402Y-138532701D01*
X118100500Y-138361611D01*
X118100500Y-137638389D01*
X118073402Y-137467299D01*
X118027160Y-137324983D01*
X129399500Y-137324983D01*
X129399500Y-138675001D01*
X129399501Y-138675018D01*
X129410000Y-138777796D01*
X129410001Y-138777799D01*
X129448155Y-138892938D01*
X129465186Y-138944334D01*
X129557288Y-139093656D01*
X129681344Y-139217712D01*
X129830666Y-139309814D01*
X129997203Y-139364999D01*
X130099991Y-139375500D01*
X130900008Y-139375499D01*
X130900016Y-139375498D01*
X130900019Y-139375498D01*
X130956302Y-139369748D01*
X131002797Y-139364999D01*
X131169334Y-139309814D01*
X131318656Y-139217712D01*
X131442712Y-139093656D01*
X131482581Y-139029016D01*
X131534525Y-138982294D01*
X131603488Y-138971071D01*
X131667570Y-138998914D01*
X131675799Y-139006434D01*
X131783397Y-139114032D01*
X131923475Y-139215804D01*
X132077744Y-139294408D01*
X132242415Y-139347914D01*
X132242414Y-139347914D01*
X132249999Y-139349115D01*
X132250000Y-139349114D01*
X132250000Y-138280330D01*
X132269745Y-138300075D01*
X132355255Y-138349444D01*
X132450630Y-138375000D01*
X132549370Y-138375000D01*
X132644745Y-138349444D01*
X132730255Y-138300075D01*
X132750000Y-138280330D01*
X132750000Y-139349115D01*
X132757584Y-139347914D01*
X132922255Y-139294408D01*
X133076524Y-139215804D01*
X133216602Y-139114032D01*
X133339032Y-138991602D01*
X133440804Y-138851524D01*
X133519408Y-138697257D01*
X133572914Y-138532584D01*
X133600000Y-138361571D01*
X133600000Y-138250000D01*
X132780330Y-138250000D01*
X132800075Y-138230255D01*
X132849444Y-138144745D01*
X132875000Y-138049370D01*
X132875000Y-137950630D01*
X132849444Y-137855255D01*
X132800075Y-137769745D01*
X132780330Y-137750000D01*
X133600000Y-137750000D01*
X133600000Y-137638428D01*
X133572914Y-137467415D01*
X133519408Y-137302742D01*
X133440804Y-137148475D01*
X133339032Y-137008397D01*
X133216602Y-136885967D01*
X133076524Y-136784195D01*
X132922257Y-136705591D01*
X132757589Y-136652087D01*
X132757581Y-136652085D01*
X132750000Y-136650884D01*
X132750000Y-137719670D01*
X132730255Y-137699925D01*
X132644745Y-137650556D01*
X132549370Y-137625000D01*
X132450630Y-137625000D01*
X132355255Y-137650556D01*
X132269745Y-137699925D01*
X132250000Y-137719670D01*
X132250000Y-136650884D01*
X132249999Y-136650884D01*
X132242418Y-136652085D01*
X132242410Y-136652087D01*
X132077742Y-136705591D01*
X131923475Y-136784195D01*
X131783401Y-136885964D01*
X131675799Y-136993566D01*
X131614476Y-137027050D01*
X131544784Y-137022066D01*
X131488851Y-136980194D01*
X131482585Y-136970988D01*
X131442712Y-136906344D01*
X131318656Y-136782288D01*
X131193559Y-136705128D01*
X131169336Y-136690187D01*
X131169331Y-136690185D01*
X131167862Y-136689698D01*
X131002797Y-136635001D01*
X131002795Y-136635000D01*
X130900010Y-136624500D01*
X130099998Y-136624500D01*
X130099980Y-136624501D01*
X129997203Y-136635000D01*
X129997200Y-136635001D01*
X129830668Y-136690185D01*
X129830663Y-136690187D01*
X129681342Y-136782289D01*
X129557289Y-136906342D01*
X129465187Y-137055663D01*
X129465185Y-137055668D01*
X129465115Y-137055880D01*
X129410001Y-137222203D01*
X129410001Y-137222204D01*
X129410000Y-137222204D01*
X129399500Y-137324983D01*
X118027160Y-137324983D01*
X118019873Y-137302555D01*
X117941232Y-137148212D01*
X117839414Y-137008072D01*
X117716928Y-136885586D01*
X117576788Y-136783768D01*
X117422445Y-136705127D01*
X117257701Y-136651598D01*
X117257699Y-136651597D01*
X117257698Y-136651597D01*
X117126271Y-136630781D01*
X117086611Y-136624500D01*
X116913389Y-136624500D01*
X116873728Y-136630781D01*
X116742302Y-136651597D01*
X116577552Y-136705128D01*
X116423211Y-136783768D01*
X116343256Y-136841859D01*
X116283072Y-136885586D01*
X116283070Y-136885588D01*
X116283069Y-136885588D01*
X116160588Y-137008069D01*
X116160581Y-137008078D01*
X116100317Y-137091023D01*
X116044987Y-137133689D01*
X115975374Y-137139667D01*
X115913579Y-137107061D01*
X115899683Y-137091023D01*
X115849581Y-137022066D01*
X115839414Y-137008072D01*
X115716928Y-136885586D01*
X115576788Y-136783768D01*
X115422445Y-136705127D01*
X115257701Y-136651598D01*
X115257699Y-136651597D01*
X115257698Y-136651597D01*
X115126271Y-136630781D01*
X115086611Y-136624500D01*
X114913389Y-136624500D01*
X114873728Y-136630781D01*
X114742302Y-136651597D01*
X114577552Y-136705128D01*
X114423211Y-136783768D01*
X114283073Y-136885585D01*
X114175166Y-136993492D01*
X114113843Y-137026976D01*
X114044151Y-137021992D01*
X113988218Y-136980120D01*
X113981946Y-136970906D01*
X113942317Y-136906656D01*
X113818345Y-136782684D01*
X113669124Y-136690643D01*
X113669119Y-136690641D01*
X113502697Y-136635494D01*
X113502690Y-136635493D01*
X113399986Y-136625000D01*
X113250000Y-136625000D01*
X113250000Y-137719670D01*
X113230255Y-137699925D01*
X113144745Y-137650556D01*
X113049370Y-137625000D01*
X112950630Y-137625000D01*
X112855255Y-137650556D01*
X112769745Y-137699925D01*
X112750000Y-137719670D01*
X112750000Y-136625000D01*
X112600027Y-136625000D01*
X112600012Y-136625001D01*
X112497302Y-136635494D01*
X112330880Y-136690641D01*
X112330875Y-136690643D01*
X112181654Y-136782684D01*
X112057684Y-136906654D01*
X111965643Y-137055875D01*
X111965641Y-137055880D01*
X111910494Y-137222302D01*
X111910493Y-137222309D01*
X111900000Y-137325013D01*
X89791990Y-137325013D01*
X89894265Y-137222738D01*
X90041936Y-137030289D01*
X90163224Y-136820212D01*
X90256054Y-136596100D01*
X90318838Y-136361789D01*
X90350500Y-136121288D01*
X90350500Y-135878712D01*
X90350500Y-135878711D01*
X152649500Y-135878711D01*
X152649500Y-136121288D01*
X152681161Y-136361785D01*
X152743947Y-136596104D01*
X152821067Y-136782288D01*
X152836776Y-136820212D01*
X152958064Y-137030289D01*
X152958066Y-137030292D01*
X152958067Y-137030293D01*
X153105733Y-137222736D01*
X153105739Y-137222743D01*
X153277256Y-137394260D01*
X153277262Y-137394265D01*
X153469711Y-137541936D01*
X153679788Y-137663224D01*
X153903900Y-137756054D01*
X154138211Y-137818838D01*
X154318586Y-137842584D01*
X154378711Y-137850500D01*
X154378712Y-137850500D01*
X154621289Y-137850500D01*
X154669388Y-137844167D01*
X154861789Y-137818838D01*
X155096100Y-137756054D01*
X155320212Y-137663224D01*
X155530289Y-137541936D01*
X155722738Y-137394265D01*
X155894265Y-137222738D01*
X156041936Y-137030289D01*
X156163224Y-136820212D01*
X156256054Y-136596100D01*
X156318838Y-136361789D01*
X156350500Y-136121288D01*
X156350500Y-135878712D01*
X156318838Y-135638211D01*
X156256054Y-135403900D01*
X156163224Y-135179788D01*
X156041936Y-134969711D01*
X155894265Y-134777262D01*
X155894260Y-134777256D01*
X155722743Y-134605739D01*
X155722736Y-134605733D01*
X155530293Y-134458067D01*
X155530292Y-134458066D01*
X155530289Y-134458064D01*
X155320212Y-134336776D01*
X155320205Y-134336773D01*
X155096104Y-134243947D01*
X154861785Y-134181161D01*
X154621289Y-134149500D01*
X154621288Y-134149500D01*
X154378712Y-134149500D01*
X154378711Y-134149500D01*
X154138214Y-134181161D01*
X153903895Y-134243947D01*
X153679794Y-134336773D01*
X153679785Y-134336777D01*
X153469706Y-134458067D01*
X153277263Y-134605733D01*
X153277256Y-134605739D01*
X153105739Y-134777256D01*
X153105733Y-134777263D01*
X152958067Y-134969706D01*
X152836777Y-135179785D01*
X152836773Y-135179794D01*
X152743947Y-135403895D01*
X152681161Y-135638214D01*
X152649500Y-135878711D01*
X90350500Y-135878711D01*
X90318838Y-135638211D01*
X90256054Y-135403900D01*
X90163224Y-135179788D01*
X90041936Y-134969711D01*
X89894265Y-134777262D01*
X89894260Y-134777256D01*
X89722743Y-134605739D01*
X89722736Y-134605733D01*
X89530293Y-134458067D01*
X89530292Y-134458066D01*
X89530289Y-134458064D01*
X89320212Y-134336776D01*
X89320205Y-134336773D01*
X89096104Y-134243947D01*
X88861785Y-134181161D01*
X88701031Y-134159998D01*
X121694532Y-134159998D01*
X121694532Y-134160001D01*
X121714364Y-134386686D01*
X121714366Y-134386697D01*
X121773258Y-134606488D01*
X121773261Y-134606497D01*
X121869431Y-134812732D01*
X121869432Y-134812734D01*
X121999954Y-134999141D01*
X122160858Y-135160045D01*
X122160861Y-135160047D01*
X122347266Y-135290568D01*
X122553504Y-135386739D01*
X122773308Y-135445635D01*
X122935230Y-135459801D01*
X122999998Y-135465468D01*
X123000000Y-135465468D01*
X123000002Y-135465468D01*
X123056673Y-135460509D01*
X123226692Y-135445635D01*
X123446496Y-135386739D01*
X123652734Y-135290568D01*
X123839139Y-135160047D01*
X124000047Y-134999139D01*
X124130568Y-134812734D01*
X124226739Y-134606496D01*
X124285635Y-134386692D01*
X124305468Y-134160000D01*
X124304549Y-134149500D01*
X124299801Y-134095230D01*
X124285635Y-133933308D01*
X124257954Y-133829999D01*
X126721127Y-133829999D01*
X126721128Y-133830000D01*
X127684314Y-133830000D01*
X127679920Y-133834394D01*
X127627259Y-133925606D01*
X127600000Y-134027339D01*
X127600000Y-134132661D01*
X127627259Y-134234394D01*
X127679920Y-134325606D01*
X127684314Y-134330000D01*
X126721128Y-134330000D01*
X126773730Y-134526317D01*
X126773734Y-134526326D01*
X126869865Y-134732482D01*
X127000342Y-134918820D01*
X127161179Y-135079657D01*
X127347517Y-135210134D01*
X127553673Y-135306265D01*
X127553682Y-135306269D01*
X127749999Y-135358872D01*
X127750000Y-135358871D01*
X127750000Y-134395686D01*
X127754394Y-134400080D01*
X127845606Y-134452741D01*
X127947339Y-134480000D01*
X128052661Y-134480000D01*
X128154394Y-134452741D01*
X128245606Y-134400080D01*
X128250000Y-134395686D01*
X128250000Y-135358872D01*
X128446317Y-135306269D01*
X128446326Y-135306265D01*
X128652482Y-135210134D01*
X128838820Y-135079657D01*
X128999657Y-134918820D01*
X129130134Y-134732482D01*
X129226265Y-134526326D01*
X129226269Y-134526317D01*
X129278872Y-134330000D01*
X128315686Y-134330000D01*
X128320080Y-134325606D01*
X128372741Y-134234394D01*
X128392675Y-134159998D01*
X131694532Y-134159998D01*
X131694532Y-134160001D01*
X131714364Y-134386686D01*
X131714366Y-134386697D01*
X131773258Y-134606488D01*
X131773261Y-134606497D01*
X131869431Y-134812732D01*
X131869432Y-134812734D01*
X131999954Y-134999141D01*
X132160858Y-135160045D01*
X132160861Y-135160047D01*
X132347266Y-135290568D01*
X132553504Y-135386739D01*
X132773308Y-135445635D01*
X132935230Y-135459801D01*
X132999998Y-135465468D01*
X133000000Y-135465468D01*
X133000002Y-135465468D01*
X133056673Y-135460509D01*
X133226692Y-135445635D01*
X133446496Y-135386739D01*
X133652734Y-135290568D01*
X133839139Y-135160047D01*
X134000047Y-134999139D01*
X134130568Y-134812734D01*
X134226739Y-134606496D01*
X134285635Y-134386692D01*
X134305468Y-134160000D01*
X134304549Y-134149500D01*
X134299801Y-134095230D01*
X134285635Y-133933308D01*
X134279389Y-133909999D01*
X136721127Y-133909999D01*
X136721128Y-133910000D01*
X137684314Y-133910000D01*
X137679920Y-133914394D01*
X137627259Y-134005606D01*
X137600000Y-134107339D01*
X137600000Y-134212661D01*
X137627259Y-134314394D01*
X137679920Y-134405606D01*
X137684314Y-134410000D01*
X136721128Y-134410000D01*
X136773730Y-134606317D01*
X136773734Y-134606326D01*
X136869865Y-134812482D01*
X137000342Y-134998820D01*
X137161179Y-135159657D01*
X137347517Y-135290134D01*
X137553673Y-135386265D01*
X137553682Y-135386269D01*
X137749999Y-135438872D01*
X137750000Y-135438871D01*
X137750000Y-134475686D01*
X137754394Y-134480080D01*
X137845606Y-134532741D01*
X137947339Y-134560000D01*
X138052661Y-134560000D01*
X138154394Y-134532741D01*
X138245606Y-134480080D01*
X138250000Y-134475686D01*
X138250000Y-135438872D01*
X138446317Y-135386269D01*
X138446326Y-135386265D01*
X138652482Y-135290134D01*
X138838820Y-135159657D01*
X138999657Y-134998820D01*
X139130134Y-134812482D01*
X139226265Y-134606326D01*
X139226269Y-134606317D01*
X139278872Y-134410000D01*
X138315686Y-134410000D01*
X138320080Y-134405606D01*
X138372741Y-134314394D01*
X138400000Y-134212661D01*
X138400000Y-134107339D01*
X138372741Y-134005606D01*
X138320080Y-133914394D01*
X138315686Y-133910000D01*
X139278872Y-133910000D01*
X139278872Y-133909999D01*
X139226269Y-133713682D01*
X139226265Y-133713673D01*
X139130134Y-133507517D01*
X138999657Y-133321179D01*
X138838820Y-133160342D01*
X138652482Y-133029865D01*
X138446328Y-132933734D01*
X138250000Y-132881127D01*
X138250000Y-133844314D01*
X138245606Y-133839920D01*
X138154394Y-133787259D01*
X138052661Y-133760000D01*
X137947339Y-133760000D01*
X137845606Y-133787259D01*
X137754394Y-133839920D01*
X137750000Y-133844314D01*
X137750000Y-132881127D01*
X137553671Y-132933734D01*
X137347517Y-133029865D01*
X137161179Y-133160342D01*
X137000342Y-133321179D01*
X136869865Y-133507517D01*
X136773734Y-133713673D01*
X136773730Y-133713682D01*
X136721127Y-133909999D01*
X134279389Y-133909999D01*
X134226739Y-133713504D01*
X134130568Y-133507266D01*
X134000047Y-133320861D01*
X134000045Y-133320858D01*
X133839141Y-133159954D01*
X133652734Y-133029432D01*
X133652732Y-133029431D01*
X133446497Y-132933261D01*
X133446488Y-132933258D01*
X133226697Y-132874366D01*
X133226693Y-132874365D01*
X133226692Y-132874365D01*
X133226691Y-132874364D01*
X133226686Y-132874364D01*
X133000002Y-132854532D01*
X132999998Y-132854532D01*
X132773313Y-132874364D01*
X132773302Y-132874366D01*
X132553511Y-132933258D01*
X132553502Y-132933261D01*
X132347267Y-133029431D01*
X132347265Y-133029432D01*
X132160858Y-133159954D01*
X131999954Y-133320858D01*
X131869432Y-133507265D01*
X131869431Y-133507267D01*
X131773261Y-133713502D01*
X131773258Y-133713511D01*
X131714366Y-133933302D01*
X131714364Y-133933313D01*
X131694532Y-134159998D01*
X128392675Y-134159998D01*
X128400000Y-134132661D01*
X128400000Y-134027339D01*
X128372741Y-133925606D01*
X128320080Y-133834394D01*
X128315686Y-133830000D01*
X129278872Y-133830000D01*
X129278872Y-133829999D01*
X129226269Y-133633682D01*
X129226265Y-133633673D01*
X129130134Y-133427517D01*
X128999657Y-133241179D01*
X128838820Y-133080342D01*
X128652482Y-132949865D01*
X128446328Y-132853734D01*
X128250000Y-132801127D01*
X128250000Y-133764314D01*
X128245606Y-133759920D01*
X128154394Y-133707259D01*
X128052661Y-133680000D01*
X127947339Y-133680000D01*
X127845606Y-133707259D01*
X127754394Y-133759920D01*
X127750000Y-133764314D01*
X127750000Y-132801127D01*
X127553671Y-132853734D01*
X127347517Y-132949865D01*
X127161179Y-133080342D01*
X127000342Y-133241179D01*
X126869865Y-133427517D01*
X126773734Y-133633673D01*
X126773730Y-133633682D01*
X126721127Y-133829999D01*
X124257954Y-133829999D01*
X124226739Y-133713504D01*
X124130568Y-133507266D01*
X124000047Y-133320861D01*
X124000045Y-133320858D01*
X123839141Y-133159954D01*
X123652734Y-133029432D01*
X123652732Y-133029431D01*
X123446497Y-132933261D01*
X123446488Y-132933258D01*
X123226697Y-132874366D01*
X123226693Y-132874365D01*
X123226692Y-132874365D01*
X123226691Y-132874364D01*
X123226686Y-132874364D01*
X123000002Y-132854532D01*
X122999998Y-132854532D01*
X122773313Y-132874364D01*
X122773302Y-132874366D01*
X122553511Y-132933258D01*
X122553502Y-132933261D01*
X122347267Y-133029431D01*
X122347265Y-133029432D01*
X122160858Y-133159954D01*
X121999954Y-133320858D01*
X121869432Y-133507265D01*
X121869431Y-133507267D01*
X121773261Y-133713502D01*
X121773258Y-133713511D01*
X121714366Y-133933302D01*
X121714364Y-133933313D01*
X121694532Y-134159998D01*
X88701031Y-134159998D01*
X88621289Y-134149500D01*
X88621288Y-134149500D01*
X88378712Y-134149500D01*
X88378711Y-134149500D01*
X88138214Y-134181161D01*
X87903895Y-134243947D01*
X87679794Y-134336773D01*
X87679785Y-134336777D01*
X87469706Y-134458067D01*
X87277263Y-134605733D01*
X87277256Y-134605739D01*
X87105739Y-134777256D01*
X87105733Y-134777263D01*
X86958067Y-134969706D01*
X86836777Y-135179785D01*
X86836773Y-135179794D01*
X86743947Y-135403895D01*
X86681161Y-135638214D01*
X86649500Y-135878711D01*
X83500000Y-135878711D01*
X83500000Y-131499998D01*
X113649645Y-131499998D01*
X113649645Y-131500001D01*
X113669477Y-131726686D01*
X113669479Y-131726697D01*
X113728371Y-131946488D01*
X113728374Y-131946497D01*
X113824544Y-132152732D01*
X113824545Y-132152734D01*
X113955067Y-132339141D01*
X114115971Y-132500045D01*
X114115974Y-132500047D01*
X114302379Y-132630568D01*
X114508617Y-132726739D01*
X114728421Y-132785635D01*
X114890343Y-132799801D01*
X114955111Y-132805468D01*
X114955113Y-132805468D01*
X114955115Y-132805468D01*
X115011920Y-132800498D01*
X115181805Y-132785635D01*
X115401609Y-132726739D01*
X115607847Y-132630568D01*
X115620664Y-132621592D01*
X115686869Y-132599262D01*
X115754637Y-132616269D01*
X115791058Y-132648852D01*
X115797563Y-132657542D01*
X115797565Y-132657544D01*
X115797567Y-132657546D01*
X115797570Y-132657548D01*
X115912777Y-132743793D01*
X115912784Y-132743797D01*
X116047630Y-132794091D01*
X116047629Y-132794091D01*
X116054557Y-132794835D01*
X116107240Y-132800500D01*
X117802985Y-132800499D01*
X117862596Y-132794091D01*
X117997444Y-132743796D01*
X118112659Y-132657546D01*
X118198909Y-132542331D01*
X118249204Y-132407483D01*
X118255613Y-132347873D01*
X118255612Y-130652128D01*
X118249204Y-130592517D01*
X118244171Y-130579024D01*
X118198910Y-130457671D01*
X118198906Y-130457664D01*
X118112660Y-130342455D01*
X118112657Y-130342452D01*
X117997448Y-130256206D01*
X117997441Y-130256202D01*
X117862595Y-130205908D01*
X117862596Y-130205908D01*
X117802996Y-130199501D01*
X117802994Y-130199500D01*
X117802986Y-130199500D01*
X117802977Y-130199500D01*
X116107242Y-130199500D01*
X116107236Y-130199501D01*
X116047629Y-130205908D01*
X115912784Y-130256202D01*
X115912777Y-130256206D01*
X115797570Y-130342451D01*
X115797559Y-130342462D01*
X115791055Y-130351150D01*
X115735120Y-130393019D01*
X115665428Y-130398000D01*
X115620668Y-130378409D01*
X115607850Y-130369433D01*
X115607846Y-130369431D01*
X115504728Y-130321346D01*
X115401609Y-130273261D01*
X115401605Y-130273260D01*
X115401601Y-130273258D01*
X115181810Y-130214366D01*
X115181806Y-130214365D01*
X115181805Y-130214365D01*
X115181804Y-130214364D01*
X115181799Y-130214364D01*
X114955115Y-130194532D01*
X114955111Y-130194532D01*
X114728426Y-130214364D01*
X114728415Y-130214366D01*
X114508624Y-130273258D01*
X114508615Y-130273261D01*
X114302380Y-130369431D01*
X114302378Y-130369432D01*
X114115971Y-130499954D01*
X113955067Y-130660858D01*
X113824545Y-130847265D01*
X113824544Y-130847267D01*
X113728374Y-131053502D01*
X113728371Y-131053511D01*
X113669479Y-131273302D01*
X113669477Y-131273313D01*
X113649645Y-131499998D01*
X83500000Y-131499998D01*
X83500000Y-129499997D01*
X144195034Y-129499997D01*
X144195034Y-129500002D01*
X144214858Y-129726599D01*
X144214860Y-129726610D01*
X144273730Y-129946317D01*
X144273735Y-129946331D01*
X144369863Y-130152478D01*
X144420974Y-130225472D01*
X145100000Y-129546446D01*
X145100000Y-129552661D01*
X145127259Y-129654394D01*
X145179920Y-129745606D01*
X145254394Y-129820080D01*
X145345606Y-129872741D01*
X145447339Y-129900000D01*
X145453553Y-129900000D01*
X144774526Y-130579025D01*
X144847513Y-130630132D01*
X144847521Y-130630136D01*
X145053668Y-130726264D01*
X145053682Y-130726269D01*
X145273389Y-130785139D01*
X145273400Y-130785141D01*
X145499998Y-130804966D01*
X145500002Y-130804966D01*
X145726599Y-130785141D01*
X145726610Y-130785139D01*
X145946317Y-130726269D01*
X145946331Y-130726264D01*
X146152478Y-130630136D01*
X146225471Y-130579024D01*
X145546447Y-129900000D01*
X145552661Y-129900000D01*
X145654394Y-129872741D01*
X145745606Y-129820080D01*
X145820080Y-129745606D01*
X145872741Y-129654394D01*
X145900000Y-129552661D01*
X145900000Y-129546447D01*
X146579024Y-130225471D01*
X146630136Y-130152478D01*
X146726264Y-129946331D01*
X146726269Y-129946317D01*
X146785139Y-129726610D01*
X146785141Y-129726599D01*
X146804966Y-129500002D01*
X146804966Y-129499997D01*
X146785141Y-129273400D01*
X146785139Y-129273389D01*
X146726269Y-129053682D01*
X146726264Y-129053668D01*
X146630136Y-128847521D01*
X146630132Y-128847513D01*
X146579025Y-128774526D01*
X145900000Y-129453551D01*
X145900000Y-129447339D01*
X145872741Y-129345606D01*
X145820080Y-129254394D01*
X145745606Y-129179920D01*
X145654394Y-129127259D01*
X145552661Y-129100000D01*
X145546448Y-129100000D01*
X146230645Y-128415801D01*
X146240492Y-128366807D01*
X146289107Y-128316624D01*
X146344633Y-128301981D01*
X146344576Y-128300900D01*
X146344571Y-128300854D01*
X146344573Y-128300853D01*
X146344564Y-128300676D01*
X146347857Y-128300499D01*
X146347872Y-128300499D01*
X146407483Y-128294091D01*
X146542331Y-128243796D01*
X146657546Y-128157546D01*
X146743796Y-128042331D01*
X146794091Y-127907483D01*
X146800500Y-127847873D01*
X146800499Y-126152128D01*
X146794091Y-126092517D01*
X146743796Y-125957669D01*
X146743795Y-125957668D01*
X146743793Y-125957664D01*
X146657547Y-125842455D01*
X146657544Y-125842452D01*
X146542335Y-125756206D01*
X146542328Y-125756202D01*
X146407482Y-125705908D01*
X146407483Y-125705908D01*
X146347883Y-125699501D01*
X146347881Y-125699500D01*
X146347873Y-125699500D01*
X146347864Y-125699500D01*
X144652129Y-125699500D01*
X144652123Y-125699501D01*
X144592516Y-125705908D01*
X144457671Y-125756202D01*
X144457664Y-125756206D01*
X144342455Y-125842452D01*
X144342452Y-125842455D01*
X144256206Y-125957664D01*
X144256202Y-125957671D01*
X144205908Y-126092517D01*
X144199501Y-126152116D01*
X144199501Y-126152123D01*
X144199500Y-126152135D01*
X144199500Y-127847870D01*
X144199501Y-127847876D01*
X144205908Y-127907483D01*
X144256202Y-128042328D01*
X144256206Y-128042335D01*
X144342452Y-128157544D01*
X144342455Y-128157547D01*
X144457664Y-128243793D01*
X144457671Y-128243797D01*
X144502618Y-128260561D01*
X144592517Y-128294091D01*
X144652127Y-128300500D01*
X144652153Y-128300499D01*
X144655453Y-128300678D01*
X144655372Y-128302183D01*
X144716672Y-128320112D01*
X144762483Y-128372867D01*
X144770016Y-128416464D01*
X145453553Y-129100000D01*
X145447339Y-129100000D01*
X145345606Y-129127259D01*
X145254394Y-129179920D01*
X145179920Y-129254394D01*
X145127259Y-129345606D01*
X145100000Y-129447339D01*
X145100000Y-129453552D01*
X144420974Y-128774526D01*
X144420973Y-128774526D01*
X144369868Y-128847512D01*
X144369866Y-128847516D01*
X144273734Y-129053673D01*
X144273730Y-129053682D01*
X144214860Y-129273389D01*
X144214858Y-129273400D01*
X144195034Y-129499997D01*
X83500000Y-129499997D01*
X83500000Y-123913389D01*
X85624500Y-123913389D01*
X85624500Y-124086610D01*
X85646686Y-124226692D01*
X85651598Y-124257701D01*
X85705127Y-124422445D01*
X85783768Y-124576788D01*
X85885586Y-124716928D01*
X86008072Y-124839414D01*
X86148212Y-124941232D01*
X86302555Y-125019873D01*
X86467299Y-125073402D01*
X86638389Y-125100500D01*
X86638390Y-125100500D01*
X87361610Y-125100500D01*
X87361611Y-125100500D01*
X87532701Y-125073402D01*
X87697445Y-125019873D01*
X87851788Y-124941232D01*
X87991928Y-124839414D01*
X88114414Y-124716928D01*
X88216232Y-124576788D01*
X88294873Y-124422445D01*
X88348402Y-124257701D01*
X88375500Y-124086611D01*
X88375500Y-123999998D01*
X92114532Y-123999998D01*
X92114532Y-124000001D01*
X92134364Y-124226686D01*
X92134366Y-124226697D01*
X92193258Y-124446488D01*
X92193261Y-124446497D01*
X92289431Y-124652732D01*
X92289432Y-124652734D01*
X92419954Y-124839141D01*
X92580858Y-125000045D01*
X92580861Y-125000047D01*
X92767266Y-125130568D01*
X92973504Y-125226739D01*
X93193308Y-125285635D01*
X93355230Y-125299801D01*
X93419998Y-125305468D01*
X93420000Y-125305468D01*
X93420002Y-125305468D01*
X93476673Y-125300509D01*
X93646692Y-125285635D01*
X93866496Y-125226739D01*
X94072734Y-125130568D01*
X94259139Y-125000047D01*
X94420047Y-124839139D01*
X94550568Y-124652734D01*
X94646739Y-124446496D01*
X94705635Y-124226692D01*
X94725468Y-124000000D01*
X94725468Y-123999998D01*
X102274532Y-123999998D01*
X102274532Y-124000001D01*
X102294364Y-124226686D01*
X102294366Y-124226697D01*
X102353258Y-124446488D01*
X102353261Y-124446497D01*
X102449431Y-124652732D01*
X102449432Y-124652734D01*
X102579954Y-124839141D01*
X102740858Y-125000045D01*
X102740861Y-125000047D01*
X102927266Y-125130568D01*
X103133504Y-125226739D01*
X103353308Y-125285635D01*
X103515230Y-125299801D01*
X103579998Y-125305468D01*
X103580000Y-125305468D01*
X103580002Y-125305468D01*
X103636673Y-125300509D01*
X103806692Y-125285635D01*
X104026496Y-125226739D01*
X104232734Y-125130568D01*
X104419139Y-125000047D01*
X104580047Y-124839139D01*
X104710568Y-124652734D01*
X104806739Y-124446496D01*
X104865635Y-124226692D01*
X104885468Y-124000000D01*
X104885468Y-123999998D01*
X106534532Y-123999998D01*
X106534532Y-124000001D01*
X106554364Y-124226686D01*
X106554366Y-124226697D01*
X106613258Y-124446488D01*
X106613261Y-124446497D01*
X106709431Y-124652732D01*
X106709432Y-124652734D01*
X106839954Y-124839141D01*
X107000858Y-125000045D01*
X107000861Y-125000047D01*
X107187266Y-125130568D01*
X107393504Y-125226739D01*
X107613308Y-125285635D01*
X107775230Y-125299801D01*
X107839998Y-125305468D01*
X107840000Y-125305468D01*
X107840002Y-125305468D01*
X107896673Y-125300509D01*
X108066692Y-125285635D01*
X108286496Y-125226739D01*
X108492734Y-125130568D01*
X108679139Y-125000047D01*
X108840047Y-124839139D01*
X108970568Y-124652734D01*
X109066739Y-124446496D01*
X109125635Y-124226692D01*
X109145468Y-124000000D01*
X109145468Y-123999998D01*
X116694532Y-123999998D01*
X116694532Y-124000001D01*
X116714364Y-124226686D01*
X116714366Y-124226697D01*
X116773258Y-124446488D01*
X116773261Y-124446497D01*
X116869431Y-124652732D01*
X116869432Y-124652734D01*
X116999954Y-124839141D01*
X117160858Y-125000045D01*
X117160861Y-125000047D01*
X117347266Y-125130568D01*
X117553504Y-125226739D01*
X117773308Y-125285635D01*
X117935230Y-125299801D01*
X117999998Y-125305468D01*
X118000000Y-125305468D01*
X118000002Y-125305468D01*
X118056673Y-125300509D01*
X118226692Y-125285635D01*
X118446496Y-125226739D01*
X118652734Y-125130568D01*
X118839139Y-125000047D01*
X119000047Y-124839139D01*
X119130568Y-124652734D01*
X119226739Y-124446496D01*
X119285635Y-124226692D01*
X119305468Y-124000000D01*
X119305468Y-123999998D01*
X121694532Y-123999998D01*
X121694532Y-124000001D01*
X121714364Y-124226686D01*
X121714366Y-124226697D01*
X121773258Y-124446488D01*
X121773261Y-124446497D01*
X121869431Y-124652732D01*
X121869432Y-124652734D01*
X121999954Y-124839141D01*
X122160858Y-125000045D01*
X122160861Y-125000047D01*
X122347266Y-125130568D01*
X122553504Y-125226739D01*
X122773308Y-125285635D01*
X122935230Y-125299801D01*
X122999998Y-125305468D01*
X123000000Y-125305468D01*
X123000002Y-125305468D01*
X123056673Y-125300509D01*
X123226692Y-125285635D01*
X123446496Y-125226739D01*
X123652734Y-125130568D01*
X123839139Y-125000047D01*
X124000047Y-124839139D01*
X124130568Y-124652734D01*
X124226739Y-124446496D01*
X124285635Y-124226692D01*
X124305468Y-124000000D01*
X124298469Y-123919998D01*
X126694532Y-123919998D01*
X126694532Y-123920001D01*
X126714364Y-124146686D01*
X126714366Y-124146697D01*
X126773258Y-124366488D01*
X126773261Y-124366497D01*
X126869431Y-124572732D01*
X126869432Y-124572734D01*
X126999954Y-124759141D01*
X127160858Y-124920045D01*
X127160861Y-124920047D01*
X127347266Y-125050568D01*
X127553504Y-125146739D01*
X127773308Y-125205635D01*
X127935230Y-125219801D01*
X127999998Y-125225468D01*
X128000000Y-125225468D01*
X128000002Y-125225468D01*
X128056673Y-125220509D01*
X128226692Y-125205635D01*
X128446496Y-125146739D01*
X128652734Y-125050568D01*
X128839139Y-124920047D01*
X129000047Y-124759139D01*
X129130568Y-124572734D01*
X129226739Y-124366496D01*
X129285635Y-124146692D01*
X129305468Y-123920000D01*
X129285635Y-123693308D01*
X129226739Y-123473504D01*
X129130568Y-123267266D01*
X129000047Y-123080861D01*
X129000045Y-123080858D01*
X128839141Y-122919954D01*
X128652734Y-122789432D01*
X128652732Y-122789431D01*
X128446497Y-122693261D01*
X128446488Y-122693258D01*
X128226697Y-122634366D01*
X128226693Y-122634365D01*
X128226692Y-122634365D01*
X128226691Y-122634364D01*
X128226686Y-122634364D01*
X128000002Y-122614532D01*
X127999998Y-122614532D01*
X127773313Y-122634364D01*
X127773302Y-122634366D01*
X127553511Y-122693258D01*
X127553502Y-122693261D01*
X127347267Y-122789431D01*
X127347265Y-122789432D01*
X127160858Y-122919954D01*
X126999954Y-123080858D01*
X126869432Y-123267265D01*
X126869431Y-123267267D01*
X126773261Y-123473502D01*
X126773258Y-123473511D01*
X126714366Y-123693302D01*
X126714364Y-123693313D01*
X126694532Y-123919998D01*
X124298469Y-123919998D01*
X124285635Y-123773308D01*
X124226739Y-123553504D01*
X124130568Y-123347266D01*
X124000047Y-123160861D01*
X124000045Y-123160858D01*
X123839141Y-122999954D01*
X123652734Y-122869432D01*
X123652732Y-122869431D01*
X123446497Y-122773261D01*
X123446488Y-122773258D01*
X123226697Y-122714366D01*
X123226693Y-122714365D01*
X123226692Y-122714365D01*
X123226691Y-122714364D01*
X123226686Y-122714364D01*
X123000002Y-122694532D01*
X122999998Y-122694532D01*
X122773313Y-122714364D01*
X122773302Y-122714366D01*
X122553511Y-122773258D01*
X122553502Y-122773261D01*
X122347267Y-122869431D01*
X122347265Y-122869432D01*
X122160858Y-122999954D01*
X121999954Y-123160858D01*
X121869432Y-123347265D01*
X121869431Y-123347267D01*
X121773261Y-123553502D01*
X121773258Y-123553511D01*
X121714366Y-123773302D01*
X121714364Y-123773313D01*
X121694532Y-123999998D01*
X119305468Y-123999998D01*
X119285635Y-123773308D01*
X119226739Y-123553504D01*
X119130568Y-123347266D01*
X119000047Y-123160861D01*
X119000045Y-123160858D01*
X118839141Y-122999954D01*
X118652734Y-122869432D01*
X118652732Y-122869431D01*
X118446497Y-122773261D01*
X118446488Y-122773258D01*
X118226697Y-122714366D01*
X118226693Y-122714365D01*
X118226692Y-122714365D01*
X118226691Y-122714364D01*
X118226686Y-122714364D01*
X118000002Y-122694532D01*
X117999998Y-122694532D01*
X117773313Y-122714364D01*
X117773302Y-122714366D01*
X117553511Y-122773258D01*
X117553502Y-122773261D01*
X117347267Y-122869431D01*
X117347265Y-122869432D01*
X117160858Y-122999954D01*
X116999954Y-123160858D01*
X116869432Y-123347265D01*
X116869431Y-123347267D01*
X116773261Y-123553502D01*
X116773258Y-123553511D01*
X116714366Y-123773302D01*
X116714364Y-123773313D01*
X116694532Y-123999998D01*
X109145468Y-123999998D01*
X109125635Y-123773308D01*
X109066739Y-123553504D01*
X108970568Y-123347266D01*
X108840047Y-123160861D01*
X108840045Y-123160858D01*
X108679141Y-122999954D01*
X108492734Y-122869432D01*
X108492732Y-122869431D01*
X108286497Y-122773261D01*
X108286488Y-122773258D01*
X108066697Y-122714366D01*
X108066693Y-122714365D01*
X108066692Y-122714365D01*
X108066691Y-122714364D01*
X108066686Y-122714364D01*
X107840002Y-122694532D01*
X107839998Y-122694532D01*
X107613313Y-122714364D01*
X107613302Y-122714366D01*
X107393511Y-122773258D01*
X107393502Y-122773261D01*
X107187267Y-122869431D01*
X107187265Y-122869432D01*
X107000858Y-122999954D01*
X106839954Y-123160858D01*
X106709432Y-123347265D01*
X106709431Y-123347267D01*
X106613261Y-123553502D01*
X106613258Y-123553511D01*
X106554366Y-123773302D01*
X106554364Y-123773313D01*
X106534532Y-123999998D01*
X104885468Y-123999998D01*
X104865635Y-123773308D01*
X104806739Y-123553504D01*
X104710568Y-123347266D01*
X104580047Y-123160861D01*
X104580045Y-123160858D01*
X104419141Y-122999954D01*
X104232734Y-122869432D01*
X104232732Y-122869431D01*
X104026497Y-122773261D01*
X104026488Y-122773258D01*
X103806697Y-122714366D01*
X103806693Y-122714365D01*
X103806692Y-122714365D01*
X103806691Y-122714364D01*
X103806686Y-122714364D01*
X103580002Y-122694532D01*
X103579998Y-122694532D01*
X103353313Y-122714364D01*
X103353302Y-122714366D01*
X103133511Y-122773258D01*
X103133502Y-122773261D01*
X102927267Y-122869431D01*
X102927265Y-122869432D01*
X102740858Y-122999954D01*
X102579954Y-123160858D01*
X102449432Y-123347265D01*
X102449431Y-123347267D01*
X102353261Y-123553502D01*
X102353258Y-123553511D01*
X102294366Y-123773302D01*
X102294364Y-123773313D01*
X102274532Y-123999998D01*
X94725468Y-123999998D01*
X94705635Y-123773308D01*
X94646739Y-123553504D01*
X94550568Y-123347266D01*
X94420047Y-123160861D01*
X94420045Y-123160858D01*
X94259141Y-122999954D01*
X94072734Y-122869432D01*
X94072732Y-122869431D01*
X93866497Y-122773261D01*
X93866488Y-122773258D01*
X93646697Y-122714366D01*
X93646693Y-122714365D01*
X93646692Y-122714365D01*
X93646691Y-122714364D01*
X93646686Y-122714364D01*
X93420002Y-122694532D01*
X93419998Y-122694532D01*
X93193313Y-122714364D01*
X93193302Y-122714366D01*
X92973511Y-122773258D01*
X92973502Y-122773261D01*
X92767267Y-122869431D01*
X92767265Y-122869432D01*
X92580858Y-122999954D01*
X92419954Y-123160858D01*
X92289432Y-123347265D01*
X92289431Y-123347267D01*
X92193261Y-123553502D01*
X92193258Y-123553511D01*
X92134366Y-123773302D01*
X92134364Y-123773313D01*
X92114532Y-123999998D01*
X88375500Y-123999998D01*
X88375500Y-123913389D01*
X88348402Y-123742299D01*
X88294873Y-123577555D01*
X88216232Y-123423212D01*
X88114414Y-123283072D01*
X88006508Y-123175166D01*
X87973023Y-123113843D01*
X87978007Y-123044151D01*
X88019879Y-122988218D01*
X88029094Y-122981945D01*
X88093345Y-122942315D01*
X88217315Y-122818345D01*
X88309356Y-122669124D01*
X88309358Y-122669119D01*
X88364505Y-122502697D01*
X88364506Y-122502690D01*
X88374999Y-122399986D01*
X88375000Y-122399973D01*
X88375000Y-122250000D01*
X87280330Y-122250000D01*
X87300075Y-122230255D01*
X87349444Y-122144745D01*
X87375000Y-122049370D01*
X87375000Y-121950630D01*
X87349444Y-121855255D01*
X87300075Y-121769745D01*
X87280330Y-121750000D01*
X88374999Y-121750000D01*
X88374999Y-121600028D01*
X88374998Y-121600013D01*
X88364505Y-121497302D01*
X88309358Y-121330880D01*
X88309356Y-121330875D01*
X88217315Y-121181654D01*
X88093345Y-121057684D01*
X87944124Y-120965643D01*
X87944119Y-120965641D01*
X87777697Y-120910494D01*
X87777690Y-120910493D01*
X87674986Y-120900000D01*
X87250000Y-120900000D01*
X87250000Y-121719670D01*
X87230255Y-121699925D01*
X87144745Y-121650556D01*
X87049370Y-121625000D01*
X86950630Y-121625000D01*
X86855255Y-121650556D01*
X86769745Y-121699925D01*
X86750000Y-121719670D01*
X86750000Y-120900000D01*
X86325028Y-120900000D01*
X86325012Y-120900001D01*
X86222302Y-120910494D01*
X86055880Y-120965641D01*
X86055875Y-120965643D01*
X85906654Y-121057684D01*
X85782684Y-121181654D01*
X85690643Y-121330875D01*
X85690641Y-121330880D01*
X85635494Y-121497302D01*
X85635493Y-121497309D01*
X85625000Y-121600013D01*
X85625000Y-121750000D01*
X86719670Y-121750000D01*
X86699925Y-121769745D01*
X86650556Y-121855255D01*
X86625000Y-121950630D01*
X86625000Y-122049370D01*
X86650556Y-122144745D01*
X86699925Y-122230255D01*
X86719670Y-122250000D01*
X85625001Y-122250000D01*
X85625001Y-122399986D01*
X85635494Y-122502697D01*
X85690641Y-122669119D01*
X85690643Y-122669124D01*
X85782684Y-122818345D01*
X85906656Y-122942317D01*
X85970906Y-122981946D01*
X86017631Y-123033893D01*
X86028854Y-123102856D01*
X86001011Y-123166938D01*
X85993492Y-123175166D01*
X85885585Y-123283073D01*
X85783768Y-123423211D01*
X85705128Y-123577552D01*
X85651597Y-123742302D01*
X85624500Y-123913389D01*
X83500000Y-123913389D01*
X83500000Y-113499997D01*
X94195034Y-113499997D01*
X94195034Y-113500002D01*
X94214858Y-113726599D01*
X94214860Y-113726610D01*
X94273730Y-113946317D01*
X94273735Y-113946331D01*
X94369863Y-114152478D01*
X94420974Y-114225472D01*
X95100000Y-113546446D01*
X95100000Y-113552661D01*
X95127259Y-113654394D01*
X95179920Y-113745606D01*
X95254394Y-113820080D01*
X95345606Y-113872741D01*
X95447339Y-113900000D01*
X95453553Y-113900000D01*
X94774526Y-114579025D01*
X94847513Y-114630132D01*
X94847521Y-114630136D01*
X95053668Y-114726264D01*
X95053682Y-114726269D01*
X95273389Y-114785139D01*
X95273400Y-114785141D01*
X95499998Y-114804966D01*
X95500002Y-114804966D01*
X95726599Y-114785141D01*
X95726610Y-114785139D01*
X95946317Y-114726269D01*
X95946331Y-114726264D01*
X96152478Y-114630136D01*
X96225471Y-114579024D01*
X95546447Y-113900000D01*
X95552661Y-113900000D01*
X95654394Y-113872741D01*
X95745606Y-113820080D01*
X95820080Y-113745606D01*
X95872741Y-113654394D01*
X95900000Y-113552661D01*
X95900000Y-113546447D01*
X96579024Y-114225471D01*
X96630136Y-114152478D01*
X96726264Y-113946331D01*
X96726269Y-113946317D01*
X96785139Y-113726610D01*
X96785141Y-113726599D01*
X96804966Y-113500002D01*
X96804966Y-113499997D01*
X96785141Y-113273400D01*
X96785139Y-113273389D01*
X96726269Y-113053682D01*
X96726265Y-113053673D01*
X96630134Y-112847518D01*
X96630130Y-112847512D01*
X96621188Y-112834740D01*
X96598861Y-112768534D01*
X96615873Y-112700767D01*
X96648454Y-112664351D01*
X96657546Y-112657546D01*
X96743796Y-112542331D01*
X96794091Y-112407483D01*
X96800500Y-112347873D01*
X96800499Y-110652128D01*
X96794091Y-110592517D01*
X96759567Y-110499954D01*
X96743797Y-110457671D01*
X96743793Y-110457664D01*
X96657547Y-110342455D01*
X96657544Y-110342452D01*
X96542335Y-110256206D01*
X96542328Y-110256202D01*
X96407482Y-110205908D01*
X96407483Y-110205908D01*
X96347883Y-110199501D01*
X96347881Y-110199500D01*
X96347873Y-110199500D01*
X96347864Y-110199500D01*
X94652129Y-110199500D01*
X94652123Y-110199501D01*
X94592516Y-110205908D01*
X94457671Y-110256202D01*
X94457664Y-110256206D01*
X94342455Y-110342452D01*
X94342452Y-110342455D01*
X94256206Y-110457664D01*
X94256202Y-110457671D01*
X94205908Y-110592517D01*
X94200079Y-110646739D01*
X94199501Y-110652123D01*
X94199500Y-110652135D01*
X94199500Y-112347870D01*
X94199501Y-112347876D01*
X94205908Y-112407483D01*
X94256202Y-112542328D01*
X94256206Y-112542335D01*
X94342452Y-112657544D01*
X94342453Y-112657544D01*
X94342454Y-112657546D01*
X94351545Y-112664351D01*
X94393416Y-112720282D01*
X94398402Y-112789974D01*
X94378813Y-112834736D01*
X94369871Y-112847507D01*
X94369868Y-112847512D01*
X94273734Y-113053673D01*
X94273730Y-113053682D01*
X94214860Y-113273389D01*
X94214858Y-113273400D01*
X94195034Y-113499997D01*
X83500000Y-113499997D01*
X83500000Y-108393713D01*
X84999500Y-108393713D01*
X84999500Y-108606286D01*
X85029866Y-108798013D01*
X85032754Y-108816243D01*
X85083851Y-108973504D01*
X85098444Y-109018414D01*
X85194951Y-109207820D01*
X85319890Y-109379786D01*
X85458705Y-109518601D01*
X85492190Y-109579924D01*
X85487206Y-109649616D01*
X85445334Y-109705549D01*
X85436121Y-109711821D01*
X85281342Y-109807289D01*
X85157289Y-109931342D01*
X85065187Y-110080663D01*
X85065186Y-110080666D01*
X85010001Y-110247203D01*
X85010001Y-110247204D01*
X85010000Y-110247204D01*
X84999500Y-110349983D01*
X84999500Y-111650001D01*
X84999501Y-111650018D01*
X85010000Y-111752796D01*
X85010001Y-111752799D01*
X85065185Y-111919331D01*
X85065187Y-111919336D01*
X85081940Y-111946497D01*
X85157288Y-112068656D01*
X85281344Y-112192712D01*
X85430666Y-112284814D01*
X85597203Y-112339999D01*
X85699991Y-112350500D01*
X87300008Y-112350499D01*
X87402797Y-112339999D01*
X87569334Y-112284814D01*
X87718656Y-112192712D01*
X87842712Y-112068656D01*
X87934814Y-111919334D01*
X87989999Y-111752797D01*
X88000500Y-111650009D01*
X88000499Y-110349992D01*
X87989999Y-110247203D01*
X87934814Y-110080666D01*
X87842712Y-109931344D01*
X87718656Y-109807288D01*
X87569334Y-109715186D01*
X87569333Y-109715185D01*
X87563878Y-109711821D01*
X87517154Y-109659873D01*
X87505931Y-109590910D01*
X87533775Y-109526828D01*
X87541272Y-109518623D01*
X87680104Y-109379792D01*
X87805051Y-109207816D01*
X87901557Y-109018412D01*
X87967246Y-108816243D01*
X88000500Y-108606287D01*
X88000500Y-108393713D01*
X87967246Y-108183757D01*
X87901557Y-107981588D01*
X87805051Y-107792184D01*
X87805049Y-107792181D01*
X87805048Y-107792179D01*
X87680109Y-107620213D01*
X87529786Y-107469890D01*
X87357820Y-107344951D01*
X87168414Y-107248444D01*
X87168413Y-107248443D01*
X87168412Y-107248443D01*
X86966243Y-107182754D01*
X86966241Y-107182753D01*
X86966240Y-107182753D01*
X86804957Y-107157208D01*
X86756287Y-107149500D01*
X86243713Y-107149500D01*
X86195042Y-107157208D01*
X86033760Y-107182753D01*
X85831585Y-107248444D01*
X85642179Y-107344951D01*
X85470213Y-107469890D01*
X85319890Y-107620213D01*
X85194951Y-107792179D01*
X85098444Y-107981585D01*
X85032753Y-108183760D01*
X84999500Y-108393713D01*
X83500000Y-108393713D01*
X83500000Y-102500000D01*
X99000000Y-102500000D01*
X98250000Y-103500000D01*
G37*
%TD.AperFunction*%
%TD*%
M02*
